M48
; DRILL file {KiCad (5.1.5)-3} date 10/06/2021 12:01:12
; FORMAT={3:3/ absolute / metric / keep zeros}
; #@! TF.CreationDate,2021-06-10T12:01:12+03:00
; #@! TF.GenerationSoftware,Kicad,Pcbnew,(5.1.5)-3
; #@! TF.FileFunction,Plated,1,2,PTH
FMAT,2
METRIC
T1C0.400
T2C1.000
%
G90
G05
T1
X131445Y-120396
X132207Y-107950
X132842Y-102362
X133096Y-099314
X133350Y-103886
X135890Y-112522
X136144Y-107188
X136525Y-100076
X136525Y-116459
X136779Y-098552
X137160Y-111125
X137922Y-116459
X139700Y-114173
X139954Y-108585
X140462Y-098552
X141224Y-105156
X142621Y-120523
T2
X132842Y-123317
X132842Y-125857
X135382Y-123317
X135382Y-125857
X137922Y-123317
X137922Y-125857
X140462Y-123317
X140462Y-125857
T0
M30
