G04 #@! TF.GenerationSoftware,KiCad,Pcbnew,(5.1.5)-3*
G04 #@! TF.CreationDate,2021-06-10T12:01:20+03:00*
G04 #@! TF.ProjectId,CNC3018Bluetooth,434e4333-3031-4384-926c-7565746f6f74,rev?*
G04 #@! TF.SameCoordinates,Original*
G04 #@! TF.FileFunction,Paste,Bot*
G04 #@! TF.FilePolarity,Positive*
%FSLAX46Y46*%
G04 Gerber Fmt 4.6, Leading zero omitted, Abs format (unit mm)*
G04 Created by KiCad (PCBNEW (5.1.5)-3) date 2021-06-10 12:01:20*
%MOMM*%
%LPD*%
G04 APERTURE LIST*
%ADD10C,0.100000*%
%ADD11R,0.900000X0.800000*%
G04 APERTURE END LIST*
D10*
G36*
X139867603Y-115361963D02*
G01*
X139887018Y-115364843D01*
X139906057Y-115369612D01*
X139924537Y-115376224D01*
X139942279Y-115384616D01*
X139959114Y-115394706D01*
X139974879Y-115406398D01*
X139989421Y-115419579D01*
X140002602Y-115434121D01*
X140014294Y-115449886D01*
X140024384Y-115466721D01*
X140032776Y-115484463D01*
X140039388Y-115502943D01*
X140044157Y-115521982D01*
X140047037Y-115541397D01*
X140048000Y-115561000D01*
X140048000Y-115961000D01*
X140047037Y-115980603D01*
X140044157Y-116000018D01*
X140039388Y-116019057D01*
X140032776Y-116037537D01*
X140024384Y-116055279D01*
X140014294Y-116072114D01*
X140002602Y-116087879D01*
X139989421Y-116102421D01*
X139974879Y-116115602D01*
X139959114Y-116127294D01*
X139942279Y-116137384D01*
X139924537Y-116145776D01*
X139906057Y-116152388D01*
X139887018Y-116157157D01*
X139867603Y-116160037D01*
X139848000Y-116161000D01*
X139298000Y-116161000D01*
X139278397Y-116160037D01*
X139258982Y-116157157D01*
X139239943Y-116152388D01*
X139221463Y-116145776D01*
X139203721Y-116137384D01*
X139186886Y-116127294D01*
X139171121Y-116115602D01*
X139156579Y-116102421D01*
X139143398Y-116087879D01*
X139131706Y-116072114D01*
X139121616Y-116055279D01*
X139113224Y-116037537D01*
X139106612Y-116019057D01*
X139101843Y-116000018D01*
X139098963Y-115980603D01*
X139098000Y-115961000D01*
X139098000Y-115561000D01*
X139098963Y-115541397D01*
X139101843Y-115521982D01*
X139106612Y-115502943D01*
X139113224Y-115484463D01*
X139121616Y-115466721D01*
X139131706Y-115449886D01*
X139143398Y-115434121D01*
X139156579Y-115419579D01*
X139171121Y-115406398D01*
X139186886Y-115394706D01*
X139203721Y-115384616D01*
X139221463Y-115376224D01*
X139239943Y-115369612D01*
X139258982Y-115364843D01*
X139278397Y-115361963D01*
X139298000Y-115361000D01*
X139848000Y-115361000D01*
X139867603Y-115361963D01*
G37*
G36*
X139867603Y-117011963D02*
G01*
X139887018Y-117014843D01*
X139906057Y-117019612D01*
X139924537Y-117026224D01*
X139942279Y-117034616D01*
X139959114Y-117044706D01*
X139974879Y-117056398D01*
X139989421Y-117069579D01*
X140002602Y-117084121D01*
X140014294Y-117099886D01*
X140024384Y-117116721D01*
X140032776Y-117134463D01*
X140039388Y-117152943D01*
X140044157Y-117171982D01*
X140047037Y-117191397D01*
X140048000Y-117211000D01*
X140048000Y-117611000D01*
X140047037Y-117630603D01*
X140044157Y-117650018D01*
X140039388Y-117669057D01*
X140032776Y-117687537D01*
X140024384Y-117705279D01*
X140014294Y-117722114D01*
X140002602Y-117737879D01*
X139989421Y-117752421D01*
X139974879Y-117765602D01*
X139959114Y-117777294D01*
X139942279Y-117787384D01*
X139924537Y-117795776D01*
X139906057Y-117802388D01*
X139887018Y-117807157D01*
X139867603Y-117810037D01*
X139848000Y-117811000D01*
X139298000Y-117811000D01*
X139278397Y-117810037D01*
X139258982Y-117807157D01*
X139239943Y-117802388D01*
X139221463Y-117795776D01*
X139203721Y-117787384D01*
X139186886Y-117777294D01*
X139171121Y-117765602D01*
X139156579Y-117752421D01*
X139143398Y-117737879D01*
X139131706Y-117722114D01*
X139121616Y-117705279D01*
X139113224Y-117687537D01*
X139106612Y-117669057D01*
X139101843Y-117650018D01*
X139098963Y-117630603D01*
X139098000Y-117611000D01*
X139098000Y-117211000D01*
X139098963Y-117191397D01*
X139101843Y-117171982D01*
X139106612Y-117152943D01*
X139113224Y-117134463D01*
X139121616Y-117116721D01*
X139131706Y-117099886D01*
X139143398Y-117084121D01*
X139156579Y-117069579D01*
X139171121Y-117056398D01*
X139186886Y-117044706D01*
X139203721Y-117034616D01*
X139221463Y-117026224D01*
X139239943Y-117019612D01*
X139258982Y-117014843D01*
X139278397Y-117011963D01*
X139298000Y-117011000D01*
X139848000Y-117011000D01*
X139867603Y-117011963D01*
G37*
G36*
X138204603Y-113571963D02*
G01*
X138224018Y-113574843D01*
X138243057Y-113579612D01*
X138261537Y-113586224D01*
X138279279Y-113594616D01*
X138296114Y-113604706D01*
X138311879Y-113616398D01*
X138326421Y-113629579D01*
X138339602Y-113644121D01*
X138351294Y-113659886D01*
X138361384Y-113676721D01*
X138369776Y-113694463D01*
X138376388Y-113712943D01*
X138381157Y-113731982D01*
X138384037Y-113751397D01*
X138385000Y-113771000D01*
X138385000Y-114321000D01*
X138384037Y-114340603D01*
X138381157Y-114360018D01*
X138376388Y-114379057D01*
X138369776Y-114397537D01*
X138361384Y-114415279D01*
X138351294Y-114432114D01*
X138339602Y-114447879D01*
X138326421Y-114462421D01*
X138311879Y-114475602D01*
X138296114Y-114487294D01*
X138279279Y-114497384D01*
X138261537Y-114505776D01*
X138243057Y-114512388D01*
X138224018Y-114517157D01*
X138204603Y-114520037D01*
X138185000Y-114521000D01*
X137785000Y-114521000D01*
X137765397Y-114520037D01*
X137745982Y-114517157D01*
X137726943Y-114512388D01*
X137708463Y-114505776D01*
X137690721Y-114497384D01*
X137673886Y-114487294D01*
X137658121Y-114475602D01*
X137643579Y-114462421D01*
X137630398Y-114447879D01*
X137618706Y-114432114D01*
X137608616Y-114415279D01*
X137600224Y-114397537D01*
X137593612Y-114379057D01*
X137588843Y-114360018D01*
X137585963Y-114340603D01*
X137585000Y-114321000D01*
X137585000Y-113771000D01*
X137585963Y-113751397D01*
X137588843Y-113731982D01*
X137593612Y-113712943D01*
X137600224Y-113694463D01*
X137608616Y-113676721D01*
X137618706Y-113659886D01*
X137630398Y-113644121D01*
X137643579Y-113629579D01*
X137658121Y-113616398D01*
X137673886Y-113604706D01*
X137690721Y-113594616D01*
X137708463Y-113586224D01*
X137726943Y-113579612D01*
X137745982Y-113574843D01*
X137765397Y-113571963D01*
X137785000Y-113571000D01*
X138185000Y-113571000D01*
X138204603Y-113571963D01*
G37*
G36*
X136554603Y-113571963D02*
G01*
X136574018Y-113574843D01*
X136593057Y-113579612D01*
X136611537Y-113586224D01*
X136629279Y-113594616D01*
X136646114Y-113604706D01*
X136661879Y-113616398D01*
X136676421Y-113629579D01*
X136689602Y-113644121D01*
X136701294Y-113659886D01*
X136711384Y-113676721D01*
X136719776Y-113694463D01*
X136726388Y-113712943D01*
X136731157Y-113731982D01*
X136734037Y-113751397D01*
X136735000Y-113771000D01*
X136735000Y-114321000D01*
X136734037Y-114340603D01*
X136731157Y-114360018D01*
X136726388Y-114379057D01*
X136719776Y-114397537D01*
X136711384Y-114415279D01*
X136701294Y-114432114D01*
X136689602Y-114447879D01*
X136676421Y-114462421D01*
X136661879Y-114475602D01*
X136646114Y-114487294D01*
X136629279Y-114497384D01*
X136611537Y-114505776D01*
X136593057Y-114512388D01*
X136574018Y-114517157D01*
X136554603Y-114520037D01*
X136535000Y-114521000D01*
X136135000Y-114521000D01*
X136115397Y-114520037D01*
X136095982Y-114517157D01*
X136076943Y-114512388D01*
X136058463Y-114505776D01*
X136040721Y-114497384D01*
X136023886Y-114487294D01*
X136008121Y-114475602D01*
X135993579Y-114462421D01*
X135980398Y-114447879D01*
X135968706Y-114432114D01*
X135958616Y-114415279D01*
X135950224Y-114397537D01*
X135943612Y-114379057D01*
X135938843Y-114360018D01*
X135935963Y-114340603D01*
X135935000Y-114321000D01*
X135935000Y-113771000D01*
X135935963Y-113751397D01*
X135938843Y-113731982D01*
X135943612Y-113712943D01*
X135950224Y-113694463D01*
X135958616Y-113676721D01*
X135968706Y-113659886D01*
X135980398Y-113644121D01*
X135993579Y-113629579D01*
X136008121Y-113616398D01*
X136023886Y-113604706D01*
X136040721Y-113594616D01*
X136058463Y-113586224D01*
X136076943Y-113579612D01*
X136095982Y-113574843D01*
X136115397Y-113571963D01*
X136135000Y-113571000D01*
X136535000Y-113571000D01*
X136554603Y-113571963D01*
G37*
D11*
X132731000Y-119380000D03*
X134731000Y-120330000D03*
X134731000Y-118430000D03*
D10*
G36*
X140236603Y-106586963D02*
G01*
X140256018Y-106589843D01*
X140275057Y-106594612D01*
X140293537Y-106601224D01*
X140311279Y-106609616D01*
X140328114Y-106619706D01*
X140343879Y-106631398D01*
X140358421Y-106644579D01*
X140371602Y-106659121D01*
X140383294Y-106674886D01*
X140393384Y-106691721D01*
X140401776Y-106709463D01*
X140408388Y-106727943D01*
X140413157Y-106746982D01*
X140416037Y-106766397D01*
X140417000Y-106786000D01*
X140417000Y-107336000D01*
X140416037Y-107355603D01*
X140413157Y-107375018D01*
X140408388Y-107394057D01*
X140401776Y-107412537D01*
X140393384Y-107430279D01*
X140383294Y-107447114D01*
X140371602Y-107462879D01*
X140358421Y-107477421D01*
X140343879Y-107490602D01*
X140328114Y-107502294D01*
X140311279Y-107512384D01*
X140293537Y-107520776D01*
X140275057Y-107527388D01*
X140256018Y-107532157D01*
X140236603Y-107535037D01*
X140217000Y-107536000D01*
X139817000Y-107536000D01*
X139797397Y-107535037D01*
X139777982Y-107532157D01*
X139758943Y-107527388D01*
X139740463Y-107520776D01*
X139722721Y-107512384D01*
X139705886Y-107502294D01*
X139690121Y-107490602D01*
X139675579Y-107477421D01*
X139662398Y-107462879D01*
X139650706Y-107447114D01*
X139640616Y-107430279D01*
X139632224Y-107412537D01*
X139625612Y-107394057D01*
X139620843Y-107375018D01*
X139617963Y-107355603D01*
X139617000Y-107336000D01*
X139617000Y-106786000D01*
X139617963Y-106766397D01*
X139620843Y-106746982D01*
X139625612Y-106727943D01*
X139632224Y-106709463D01*
X139640616Y-106691721D01*
X139650706Y-106674886D01*
X139662398Y-106659121D01*
X139675579Y-106644579D01*
X139690121Y-106631398D01*
X139705886Y-106619706D01*
X139722721Y-106609616D01*
X139740463Y-106601224D01*
X139758943Y-106594612D01*
X139777982Y-106589843D01*
X139797397Y-106586963D01*
X139817000Y-106586000D01*
X140217000Y-106586000D01*
X140236603Y-106586963D01*
G37*
G36*
X138586603Y-106586963D02*
G01*
X138606018Y-106589843D01*
X138625057Y-106594612D01*
X138643537Y-106601224D01*
X138661279Y-106609616D01*
X138678114Y-106619706D01*
X138693879Y-106631398D01*
X138708421Y-106644579D01*
X138721602Y-106659121D01*
X138733294Y-106674886D01*
X138743384Y-106691721D01*
X138751776Y-106709463D01*
X138758388Y-106727943D01*
X138763157Y-106746982D01*
X138766037Y-106766397D01*
X138767000Y-106786000D01*
X138767000Y-107336000D01*
X138766037Y-107355603D01*
X138763157Y-107375018D01*
X138758388Y-107394057D01*
X138751776Y-107412537D01*
X138743384Y-107430279D01*
X138733294Y-107447114D01*
X138721602Y-107462879D01*
X138708421Y-107477421D01*
X138693879Y-107490602D01*
X138678114Y-107502294D01*
X138661279Y-107512384D01*
X138643537Y-107520776D01*
X138625057Y-107527388D01*
X138606018Y-107532157D01*
X138586603Y-107535037D01*
X138567000Y-107536000D01*
X138167000Y-107536000D01*
X138147397Y-107535037D01*
X138127982Y-107532157D01*
X138108943Y-107527388D01*
X138090463Y-107520776D01*
X138072721Y-107512384D01*
X138055886Y-107502294D01*
X138040121Y-107490602D01*
X138025579Y-107477421D01*
X138012398Y-107462879D01*
X138000706Y-107447114D01*
X137990616Y-107430279D01*
X137982224Y-107412537D01*
X137975612Y-107394057D01*
X137970843Y-107375018D01*
X137967963Y-107355603D01*
X137967000Y-107336000D01*
X137967000Y-106786000D01*
X137967963Y-106766397D01*
X137970843Y-106746982D01*
X137975612Y-106727943D01*
X137982224Y-106709463D01*
X137990616Y-106691721D01*
X138000706Y-106674886D01*
X138012398Y-106659121D01*
X138025579Y-106644579D01*
X138040121Y-106631398D01*
X138055886Y-106619706D01*
X138072721Y-106609616D01*
X138090463Y-106601224D01*
X138108943Y-106594612D01*
X138127982Y-106589843D01*
X138147397Y-106586963D01*
X138167000Y-106586000D01*
X138567000Y-106586000D01*
X138586603Y-106586963D01*
G37*
G36*
X136946603Y-101137963D02*
G01*
X136966018Y-101140843D01*
X136985057Y-101145612D01*
X137003537Y-101152224D01*
X137021279Y-101160616D01*
X137038114Y-101170706D01*
X137053879Y-101182398D01*
X137068421Y-101195579D01*
X137081602Y-101210121D01*
X137093294Y-101225886D01*
X137103384Y-101242721D01*
X137111776Y-101260463D01*
X137118388Y-101278943D01*
X137123157Y-101297982D01*
X137126037Y-101317397D01*
X137127000Y-101337000D01*
X137127000Y-101737000D01*
X137126037Y-101756603D01*
X137123157Y-101776018D01*
X137118388Y-101795057D01*
X137111776Y-101813537D01*
X137103384Y-101831279D01*
X137093294Y-101848114D01*
X137081602Y-101863879D01*
X137068421Y-101878421D01*
X137053879Y-101891602D01*
X137038114Y-101903294D01*
X137021279Y-101913384D01*
X137003537Y-101921776D01*
X136985057Y-101928388D01*
X136966018Y-101933157D01*
X136946603Y-101936037D01*
X136927000Y-101937000D01*
X136377000Y-101937000D01*
X136357397Y-101936037D01*
X136337982Y-101933157D01*
X136318943Y-101928388D01*
X136300463Y-101921776D01*
X136282721Y-101913384D01*
X136265886Y-101903294D01*
X136250121Y-101891602D01*
X136235579Y-101878421D01*
X136222398Y-101863879D01*
X136210706Y-101848114D01*
X136200616Y-101831279D01*
X136192224Y-101813537D01*
X136185612Y-101795057D01*
X136180843Y-101776018D01*
X136177963Y-101756603D01*
X136177000Y-101737000D01*
X136177000Y-101337000D01*
X136177963Y-101317397D01*
X136180843Y-101297982D01*
X136185612Y-101278943D01*
X136192224Y-101260463D01*
X136200616Y-101242721D01*
X136210706Y-101225886D01*
X136222398Y-101210121D01*
X136235579Y-101195579D01*
X136250121Y-101182398D01*
X136265886Y-101170706D01*
X136282721Y-101160616D01*
X136300463Y-101152224D01*
X136318943Y-101145612D01*
X136337982Y-101140843D01*
X136357397Y-101137963D01*
X136377000Y-101137000D01*
X136927000Y-101137000D01*
X136946603Y-101137963D01*
G37*
G36*
X136946603Y-102787963D02*
G01*
X136966018Y-102790843D01*
X136985057Y-102795612D01*
X137003537Y-102802224D01*
X137021279Y-102810616D01*
X137038114Y-102820706D01*
X137053879Y-102832398D01*
X137068421Y-102845579D01*
X137081602Y-102860121D01*
X137093294Y-102875886D01*
X137103384Y-102892721D01*
X137111776Y-102910463D01*
X137118388Y-102928943D01*
X137123157Y-102947982D01*
X137126037Y-102967397D01*
X137127000Y-102987000D01*
X137127000Y-103387000D01*
X137126037Y-103406603D01*
X137123157Y-103426018D01*
X137118388Y-103445057D01*
X137111776Y-103463537D01*
X137103384Y-103481279D01*
X137093294Y-103498114D01*
X137081602Y-103513879D01*
X137068421Y-103528421D01*
X137053879Y-103541602D01*
X137038114Y-103553294D01*
X137021279Y-103563384D01*
X137003537Y-103571776D01*
X136985057Y-103578388D01*
X136966018Y-103583157D01*
X136946603Y-103586037D01*
X136927000Y-103587000D01*
X136377000Y-103587000D01*
X136357397Y-103586037D01*
X136337982Y-103583157D01*
X136318943Y-103578388D01*
X136300463Y-103571776D01*
X136282721Y-103563384D01*
X136265886Y-103553294D01*
X136250121Y-103541602D01*
X136235579Y-103528421D01*
X136222398Y-103513879D01*
X136210706Y-103498114D01*
X136200616Y-103481279D01*
X136192224Y-103463537D01*
X136185612Y-103445057D01*
X136180843Y-103426018D01*
X136177963Y-103406603D01*
X136177000Y-103387000D01*
X136177000Y-102987000D01*
X136177963Y-102967397D01*
X136180843Y-102947982D01*
X136185612Y-102928943D01*
X136192224Y-102910463D01*
X136200616Y-102892721D01*
X136210706Y-102875886D01*
X136222398Y-102860121D01*
X136235579Y-102845579D01*
X136250121Y-102832398D01*
X136265886Y-102820706D01*
X136282721Y-102810616D01*
X136300463Y-102802224D01*
X136318943Y-102795612D01*
X136337982Y-102790843D01*
X136357397Y-102787963D01*
X136377000Y-102787000D01*
X136927000Y-102787000D01*
X136946603Y-102787963D01*
G37*
D11*
X140446000Y-102362000D03*
X138446000Y-101412000D03*
X138446000Y-103312000D03*
D10*
G36*
X138182054Y-119160083D02*
G01*
X138203895Y-119163323D01*
X138225314Y-119168688D01*
X138246104Y-119176127D01*
X138266064Y-119185568D01*
X138285003Y-119196919D01*
X138302738Y-119210073D01*
X138319099Y-119224901D01*
X138333927Y-119241262D01*
X138347081Y-119258997D01*
X138358432Y-119277936D01*
X138367873Y-119297896D01*
X138375312Y-119318686D01*
X138380677Y-119340105D01*
X138383917Y-119361946D01*
X138385000Y-119384000D01*
X138385000Y-119884000D01*
X138383917Y-119906054D01*
X138380677Y-119927895D01*
X138375312Y-119949314D01*
X138367873Y-119970104D01*
X138358432Y-119990064D01*
X138347081Y-120009003D01*
X138333927Y-120026738D01*
X138319099Y-120043099D01*
X138302738Y-120057927D01*
X138285003Y-120071081D01*
X138266064Y-120082432D01*
X138246104Y-120091873D01*
X138225314Y-120099312D01*
X138203895Y-120104677D01*
X138182054Y-120107917D01*
X138160000Y-120109000D01*
X137710000Y-120109000D01*
X137687946Y-120107917D01*
X137666105Y-120104677D01*
X137644686Y-120099312D01*
X137623896Y-120091873D01*
X137603936Y-120082432D01*
X137584997Y-120071081D01*
X137567262Y-120057927D01*
X137550901Y-120043099D01*
X137536073Y-120026738D01*
X137522919Y-120009003D01*
X137511568Y-119990064D01*
X137502127Y-119970104D01*
X137494688Y-119949314D01*
X137489323Y-119927895D01*
X137486083Y-119906054D01*
X137485000Y-119884000D01*
X137485000Y-119384000D01*
X137486083Y-119361946D01*
X137489323Y-119340105D01*
X137494688Y-119318686D01*
X137502127Y-119297896D01*
X137511568Y-119277936D01*
X137522919Y-119258997D01*
X137536073Y-119241262D01*
X137550901Y-119224901D01*
X137567262Y-119210073D01*
X137584997Y-119196919D01*
X137603936Y-119185568D01*
X137623896Y-119176127D01*
X137644686Y-119168688D01*
X137666105Y-119163323D01*
X137687946Y-119160083D01*
X137710000Y-119159000D01*
X138160000Y-119159000D01*
X138182054Y-119160083D01*
G37*
G36*
X136632054Y-119160083D02*
G01*
X136653895Y-119163323D01*
X136675314Y-119168688D01*
X136696104Y-119176127D01*
X136716064Y-119185568D01*
X136735003Y-119196919D01*
X136752738Y-119210073D01*
X136769099Y-119224901D01*
X136783927Y-119241262D01*
X136797081Y-119258997D01*
X136808432Y-119277936D01*
X136817873Y-119297896D01*
X136825312Y-119318686D01*
X136830677Y-119340105D01*
X136833917Y-119361946D01*
X136835000Y-119384000D01*
X136835000Y-119884000D01*
X136833917Y-119906054D01*
X136830677Y-119927895D01*
X136825312Y-119949314D01*
X136817873Y-119970104D01*
X136808432Y-119990064D01*
X136797081Y-120009003D01*
X136783927Y-120026738D01*
X136769099Y-120043099D01*
X136752738Y-120057927D01*
X136735003Y-120071081D01*
X136716064Y-120082432D01*
X136696104Y-120091873D01*
X136675314Y-120099312D01*
X136653895Y-120104677D01*
X136632054Y-120107917D01*
X136610000Y-120109000D01*
X136160000Y-120109000D01*
X136137946Y-120107917D01*
X136116105Y-120104677D01*
X136094686Y-120099312D01*
X136073896Y-120091873D01*
X136053936Y-120082432D01*
X136034997Y-120071081D01*
X136017262Y-120057927D01*
X136000901Y-120043099D01*
X135986073Y-120026738D01*
X135972919Y-120009003D01*
X135961568Y-119990064D01*
X135952127Y-119970104D01*
X135944688Y-119949314D01*
X135939323Y-119927895D01*
X135936083Y-119906054D01*
X135935000Y-119884000D01*
X135935000Y-119384000D01*
X135936083Y-119361946D01*
X135939323Y-119340105D01*
X135944688Y-119318686D01*
X135952127Y-119297896D01*
X135961568Y-119277936D01*
X135972919Y-119258997D01*
X135986073Y-119241262D01*
X136000901Y-119224901D01*
X136017262Y-119210073D01*
X136034997Y-119196919D01*
X136053936Y-119185568D01*
X136073896Y-119176127D01*
X136094686Y-119168688D01*
X136116105Y-119163323D01*
X136137946Y-119160083D01*
X136160000Y-119159000D01*
X136610000Y-119159000D01*
X136632054Y-119160083D01*
G37*
G36*
X134880054Y-116112083D02*
G01*
X134901895Y-116115323D01*
X134923314Y-116120688D01*
X134944104Y-116128127D01*
X134964064Y-116137568D01*
X134983003Y-116148919D01*
X135000738Y-116162073D01*
X135017099Y-116176901D01*
X135031927Y-116193262D01*
X135045081Y-116210997D01*
X135056432Y-116229936D01*
X135065873Y-116249896D01*
X135073312Y-116270686D01*
X135078677Y-116292105D01*
X135081917Y-116313946D01*
X135083000Y-116336000D01*
X135083000Y-116836000D01*
X135081917Y-116858054D01*
X135078677Y-116879895D01*
X135073312Y-116901314D01*
X135065873Y-116922104D01*
X135056432Y-116942064D01*
X135045081Y-116961003D01*
X135031927Y-116978738D01*
X135017099Y-116995099D01*
X135000738Y-117009927D01*
X134983003Y-117023081D01*
X134964064Y-117034432D01*
X134944104Y-117043873D01*
X134923314Y-117051312D01*
X134901895Y-117056677D01*
X134880054Y-117059917D01*
X134858000Y-117061000D01*
X134408000Y-117061000D01*
X134385946Y-117059917D01*
X134364105Y-117056677D01*
X134342686Y-117051312D01*
X134321896Y-117043873D01*
X134301936Y-117034432D01*
X134282997Y-117023081D01*
X134265262Y-117009927D01*
X134248901Y-116995099D01*
X134234073Y-116978738D01*
X134220919Y-116961003D01*
X134209568Y-116942064D01*
X134200127Y-116922104D01*
X134192688Y-116901314D01*
X134187323Y-116879895D01*
X134184083Y-116858054D01*
X134183000Y-116836000D01*
X134183000Y-116336000D01*
X134184083Y-116313946D01*
X134187323Y-116292105D01*
X134192688Y-116270686D01*
X134200127Y-116249896D01*
X134209568Y-116229936D01*
X134220919Y-116210997D01*
X134234073Y-116193262D01*
X134248901Y-116176901D01*
X134265262Y-116162073D01*
X134282997Y-116148919D01*
X134301936Y-116137568D01*
X134321896Y-116128127D01*
X134342686Y-116120688D01*
X134364105Y-116115323D01*
X134385946Y-116112083D01*
X134408000Y-116111000D01*
X134858000Y-116111000D01*
X134880054Y-116112083D01*
G37*
G36*
X133330054Y-116112083D02*
G01*
X133351895Y-116115323D01*
X133373314Y-116120688D01*
X133394104Y-116128127D01*
X133414064Y-116137568D01*
X133433003Y-116148919D01*
X133450738Y-116162073D01*
X133467099Y-116176901D01*
X133481927Y-116193262D01*
X133495081Y-116210997D01*
X133506432Y-116229936D01*
X133515873Y-116249896D01*
X133523312Y-116270686D01*
X133528677Y-116292105D01*
X133531917Y-116313946D01*
X133533000Y-116336000D01*
X133533000Y-116836000D01*
X133531917Y-116858054D01*
X133528677Y-116879895D01*
X133523312Y-116901314D01*
X133515873Y-116922104D01*
X133506432Y-116942064D01*
X133495081Y-116961003D01*
X133481927Y-116978738D01*
X133467099Y-116995099D01*
X133450738Y-117009927D01*
X133433003Y-117023081D01*
X133414064Y-117034432D01*
X133394104Y-117043873D01*
X133373314Y-117051312D01*
X133351895Y-117056677D01*
X133330054Y-117059917D01*
X133308000Y-117061000D01*
X132858000Y-117061000D01*
X132835946Y-117059917D01*
X132814105Y-117056677D01*
X132792686Y-117051312D01*
X132771896Y-117043873D01*
X132751936Y-117034432D01*
X132732997Y-117023081D01*
X132715262Y-117009927D01*
X132698901Y-116995099D01*
X132684073Y-116978738D01*
X132670919Y-116961003D01*
X132659568Y-116942064D01*
X132650127Y-116922104D01*
X132642688Y-116901314D01*
X132637323Y-116879895D01*
X132634083Y-116858054D01*
X132633000Y-116836000D01*
X132633000Y-116336000D01*
X132634083Y-116313946D01*
X132637323Y-116292105D01*
X132642688Y-116270686D01*
X132650127Y-116249896D01*
X132659568Y-116229936D01*
X132670919Y-116210997D01*
X132684073Y-116193262D01*
X132698901Y-116176901D01*
X132715262Y-116162073D01*
X132732997Y-116148919D01*
X132751936Y-116137568D01*
X132771896Y-116128127D01*
X132792686Y-116120688D01*
X132814105Y-116115323D01*
X132835946Y-116112083D01*
X132858000Y-116111000D01*
X133308000Y-116111000D01*
X133330054Y-116112083D01*
G37*
M02*
