G04 #@! TF.GenerationSoftware,KiCad,Pcbnew,(5.1.5)-3*
G04 #@! TF.CreationDate,2021-06-10T12:01:20+03:00*
G04 #@! TF.ProjectId,CNC3018Bluetooth,434e4333-3031-4384-926c-7565746f6f74,rev?*
G04 #@! TF.SameCoordinates,Original*
G04 #@! TF.FileFunction,Legend,Bot*
G04 #@! TF.FilePolarity,Positive*
%FSLAX46Y46*%
G04 Gerber Fmt 4.6, Leading zero omitted, Abs format (unit mm)*
G04 Created by KiCad (PCBNEW (5.1.5)-3) date 2021-06-10 12:01:20*
%MOMM*%
%LPD*%
G04 APERTURE LIST*
%ADD10C,0.300000*%
%ADD11C,0.120000*%
%ADD12C,0.150000*%
G04 APERTURE END LIST*
D10*
X130583714Y-93235857D02*
X130655142Y-93164428D01*
X130726571Y-92950142D01*
X130726571Y-92807285D01*
X130655142Y-92593000D01*
X130512285Y-92450142D01*
X130369428Y-92378714D01*
X130083714Y-92307285D01*
X129869428Y-92307285D01*
X129583714Y-92378714D01*
X129440857Y-92450142D01*
X129298000Y-92593000D01*
X129226571Y-92807285D01*
X129226571Y-92950142D01*
X129298000Y-93164428D01*
X129369428Y-93235857D01*
X130726571Y-93878714D02*
X129226571Y-93878714D01*
X130726571Y-94735857D01*
X129226571Y-94735857D01*
X130583714Y-96307285D02*
X130655142Y-96235857D01*
X130726571Y-96021571D01*
X130726571Y-95878714D01*
X130655142Y-95664428D01*
X130512285Y-95521571D01*
X130369428Y-95450142D01*
X130083714Y-95378714D01*
X129869428Y-95378714D01*
X129583714Y-95450142D01*
X129440857Y-95521571D01*
X129298000Y-95664428D01*
X129226571Y-95878714D01*
X129226571Y-96021571D01*
X129298000Y-96235857D01*
X129369428Y-96307285D01*
X129226571Y-96807285D02*
X129226571Y-97735857D01*
X129798000Y-97235857D01*
X129798000Y-97450142D01*
X129869428Y-97593000D01*
X129940857Y-97664428D01*
X130083714Y-97735857D01*
X130440857Y-97735857D01*
X130583714Y-97664428D01*
X130655142Y-97593000D01*
X130726571Y-97450142D01*
X130726571Y-97021571D01*
X130655142Y-96878714D01*
X130583714Y-96807285D01*
X129226571Y-98664428D02*
X129226571Y-98807285D01*
X129298000Y-98950142D01*
X129369428Y-99021571D01*
X129512285Y-99093000D01*
X129798000Y-99164428D01*
X130155142Y-99164428D01*
X130440857Y-99093000D01*
X130583714Y-99021571D01*
X130655142Y-98950142D01*
X130726571Y-98807285D01*
X130726571Y-98664428D01*
X130655142Y-98521571D01*
X130583714Y-98450142D01*
X130440857Y-98378714D01*
X130155142Y-98307285D01*
X129798000Y-98307285D01*
X129512285Y-98378714D01*
X129369428Y-98450142D01*
X129298000Y-98521571D01*
X129226571Y-98664428D01*
X130726571Y-100593000D02*
X130726571Y-99735857D01*
X130726571Y-100164428D02*
X129226571Y-100164428D01*
X129440857Y-100021571D01*
X129583714Y-99878714D01*
X129655142Y-99735857D01*
X129869428Y-101450142D02*
X129798000Y-101307285D01*
X129726571Y-101235857D01*
X129583714Y-101164428D01*
X129512285Y-101164428D01*
X129369428Y-101235857D01*
X129298000Y-101307285D01*
X129226571Y-101450142D01*
X129226571Y-101735857D01*
X129298000Y-101878714D01*
X129369428Y-101950142D01*
X129512285Y-102021571D01*
X129583714Y-102021571D01*
X129726571Y-101950142D01*
X129798000Y-101878714D01*
X129869428Y-101735857D01*
X129869428Y-101450142D01*
X129940857Y-101307285D01*
X130012285Y-101235857D01*
X130155142Y-101164428D01*
X130440857Y-101164428D01*
X130583714Y-101235857D01*
X130655142Y-101307285D01*
X130726571Y-101450142D01*
X130726571Y-101735857D01*
X130655142Y-101878714D01*
X130583714Y-101950142D01*
X130440857Y-102021571D01*
X130155142Y-102021571D01*
X130012285Y-101950142D01*
X129940857Y-101878714D01*
X129869428Y-101735857D01*
X129940857Y-104307285D02*
X130012285Y-104521571D01*
X130083714Y-104593000D01*
X130226571Y-104664428D01*
X130440857Y-104664428D01*
X130583714Y-104593000D01*
X130655142Y-104521571D01*
X130726571Y-104378714D01*
X130726571Y-103807285D01*
X129226571Y-103807285D01*
X129226571Y-104307285D01*
X129298000Y-104450142D01*
X129369428Y-104521571D01*
X129512285Y-104593000D01*
X129655142Y-104593000D01*
X129798000Y-104521571D01*
X129869428Y-104450142D01*
X129940857Y-104307285D01*
X129940857Y-103807285D01*
X130726571Y-106021571D02*
X130726571Y-105307285D01*
X129226571Y-105307285D01*
X129226571Y-106521571D02*
X130440857Y-106521571D01*
X130583714Y-106593000D01*
X130655142Y-106664428D01*
X130726571Y-106807285D01*
X130726571Y-107093000D01*
X130655142Y-107235857D01*
X130583714Y-107307285D01*
X130440857Y-107378714D01*
X129226571Y-107378714D01*
X129940857Y-108093000D02*
X129940857Y-108593000D01*
X130726571Y-108807285D02*
X130726571Y-108093000D01*
X129226571Y-108093000D01*
X129226571Y-108807285D01*
X129226571Y-109235857D02*
X129226571Y-110093000D01*
X130726571Y-109664428D02*
X129226571Y-109664428D01*
X129226571Y-110878714D02*
X129226571Y-111164428D01*
X129298000Y-111307285D01*
X129440857Y-111450142D01*
X129726571Y-111521571D01*
X130226571Y-111521571D01*
X130512285Y-111450142D01*
X130655142Y-111307285D01*
X130726571Y-111164428D01*
X130726571Y-110878714D01*
X130655142Y-110735857D01*
X130512285Y-110593000D01*
X130226571Y-110521571D01*
X129726571Y-110521571D01*
X129440857Y-110593000D01*
X129298000Y-110735857D01*
X129226571Y-110878714D01*
X129226571Y-112450142D02*
X129226571Y-112735857D01*
X129298000Y-112878714D01*
X129440857Y-113021571D01*
X129726571Y-113093000D01*
X130226571Y-113093000D01*
X130512285Y-113021571D01*
X130655142Y-112878714D01*
X130726571Y-112735857D01*
X130726571Y-112450142D01*
X130655142Y-112307285D01*
X130512285Y-112164428D01*
X130226571Y-112093000D01*
X129726571Y-112093000D01*
X129440857Y-112164428D01*
X129298000Y-112307285D01*
X129226571Y-112450142D01*
X129226571Y-113521571D02*
X129226571Y-114378714D01*
X130726571Y-113950142D02*
X129226571Y-113950142D01*
X130726571Y-114878714D02*
X129226571Y-114878714D01*
X129940857Y-114878714D02*
X129940857Y-115735857D01*
X130726571Y-115735857D02*
X129226571Y-115735857D01*
X130726571Y-117592999D02*
X129226571Y-117592999D01*
X130298000Y-118092999D01*
X129226571Y-118592999D01*
X130726571Y-118592999D01*
X129226571Y-119592999D02*
X129226571Y-119878714D01*
X129298000Y-120021571D01*
X129440857Y-120164428D01*
X129726571Y-120235857D01*
X130226571Y-120235857D01*
X130512285Y-120164428D01*
X130655142Y-120021571D01*
X130726571Y-119878714D01*
X130726571Y-119592999D01*
X130655142Y-119450142D01*
X130512285Y-119307285D01*
X130226571Y-119235857D01*
X129726571Y-119235857D01*
X129440857Y-119307285D01*
X129298000Y-119450142D01*
X129226571Y-119592999D01*
X130726571Y-120878714D02*
X129226571Y-120878714D01*
X129226571Y-121235857D01*
X129298000Y-121450142D01*
X129440857Y-121592999D01*
X129583714Y-121664428D01*
X129869428Y-121735857D01*
X130083714Y-121735857D01*
X130369428Y-121664428D01*
X130512285Y-121592999D01*
X130655142Y-121450142D01*
X130726571Y-121235857D01*
X130726571Y-120878714D01*
X129226571Y-122378714D02*
X130440857Y-122378714D01*
X130583714Y-122450142D01*
X130655142Y-122521571D01*
X130726571Y-122664428D01*
X130726571Y-122950142D01*
X130655142Y-123092999D01*
X130583714Y-123164428D01*
X130440857Y-123235857D01*
X129226571Y-123235857D01*
X130726571Y-124664428D02*
X130726571Y-123950142D01*
X129226571Y-123950142D01*
X129940857Y-125164428D02*
X129940857Y-125664428D01*
X130726571Y-125878714D02*
X130726571Y-125164428D01*
X129226571Y-125164428D01*
X129226571Y-125878714D01*
D11*
X139050500Y-116823258D02*
X139050500Y-116348742D01*
X140095500Y-116823258D02*
X140095500Y-116348742D01*
X136922742Y-113523500D02*
X137397258Y-113523500D01*
X136922742Y-114568500D02*
X137397258Y-114568500D01*
X132971000Y-120960000D02*
X134431000Y-120960000D01*
X132971000Y-117800000D02*
X135131000Y-117800000D01*
X132971000Y-117800000D02*
X132971000Y-118730000D01*
X132971000Y-120960000D02*
X132971000Y-120030000D01*
X138954742Y-106538500D02*
X139429258Y-106538500D01*
X138954742Y-107583500D02*
X139429258Y-107583500D01*
X136129500Y-102599258D02*
X136129500Y-102124742D01*
X137174500Y-102599258D02*
X137174500Y-102124742D01*
X140206000Y-100782000D02*
X138746000Y-100782000D01*
X140206000Y-103942000D02*
X138046000Y-103942000D01*
X140206000Y-103942000D02*
X140206000Y-103012000D01*
X140206000Y-100782000D02*
X140206000Y-101712000D01*
X131512000Y-125857000D02*
X131512000Y-127187000D01*
X131512000Y-127187000D02*
X132842000Y-127187000D01*
X131512000Y-124587000D02*
X134112000Y-124587000D01*
X134112000Y-124587000D02*
X134112000Y-127187000D01*
X134112000Y-127187000D02*
X141792000Y-127187000D01*
X141792000Y-121987000D02*
X141792000Y-127187000D01*
X131512000Y-121987000D02*
X141792000Y-121987000D01*
X131512000Y-121987000D02*
X131512000Y-124587000D01*
X137019420Y-119124000D02*
X137300580Y-119124000D01*
X137019420Y-120144000D02*
X137300580Y-120144000D01*
X133717420Y-116076000D02*
X133998580Y-116076000D01*
X133717420Y-117096000D02*
X133998580Y-117096000D01*
D12*
X141455380Y-116419333D02*
X140979190Y-116086000D01*
X141455380Y-115847904D02*
X140455380Y-115847904D01*
X140455380Y-116228857D01*
X140503000Y-116324095D01*
X140550619Y-116371714D01*
X140645857Y-116419333D01*
X140788714Y-116419333D01*
X140883952Y-116371714D01*
X140931571Y-116324095D01*
X140979190Y-116228857D01*
X140979190Y-115847904D01*
X140788714Y-117276476D02*
X141455380Y-117276476D01*
X140407761Y-117038380D02*
X141122047Y-116800285D01*
X141122047Y-117419333D01*
X137326666Y-115928380D02*
X137660000Y-115452190D01*
X137898095Y-115928380D02*
X137898095Y-114928380D01*
X137517142Y-114928380D01*
X137421904Y-114976000D01*
X137374285Y-115023619D01*
X137326666Y-115118857D01*
X137326666Y-115261714D01*
X137374285Y-115356952D01*
X137421904Y-115404571D01*
X137517142Y-115452190D01*
X137898095Y-115452190D01*
X136993333Y-114928380D02*
X136374285Y-114928380D01*
X136707619Y-115309333D01*
X136564761Y-115309333D01*
X136469523Y-115356952D01*
X136421904Y-115404571D01*
X136374285Y-115499809D01*
X136374285Y-115737904D01*
X136421904Y-115833142D01*
X136469523Y-115880761D01*
X136564761Y-115928380D01*
X136850476Y-115928380D01*
X136945714Y-115880761D01*
X136993333Y-115833142D01*
X134492904Y-116332380D02*
X134492904Y-117141904D01*
X134445285Y-117237142D01*
X134397666Y-117284761D01*
X134302428Y-117332380D01*
X134111952Y-117332380D01*
X134016714Y-117284761D01*
X133969095Y-117237142D01*
X133921476Y-117141904D01*
X133921476Y-116332380D01*
X133492904Y-116427619D02*
X133445285Y-116380000D01*
X133350047Y-116332380D01*
X133111952Y-116332380D01*
X133016714Y-116380000D01*
X132969095Y-116427619D01*
X132921476Y-116522857D01*
X132921476Y-116618095D01*
X132969095Y-116760952D01*
X133540523Y-117332380D01*
X132921476Y-117332380D01*
X139358666Y-105989380D02*
X139692000Y-105513190D01*
X139930095Y-105989380D02*
X139930095Y-104989380D01*
X139549142Y-104989380D01*
X139453904Y-105037000D01*
X139406285Y-105084619D01*
X139358666Y-105179857D01*
X139358666Y-105322714D01*
X139406285Y-105417952D01*
X139453904Y-105465571D01*
X139549142Y-105513190D01*
X139930095Y-105513190D01*
X138977714Y-105084619D02*
X138930095Y-105037000D01*
X138834857Y-104989380D01*
X138596761Y-104989380D01*
X138501523Y-105037000D01*
X138453904Y-105084619D01*
X138406285Y-105179857D01*
X138406285Y-105275095D01*
X138453904Y-105417952D01*
X139025333Y-105989380D01*
X138406285Y-105989380D01*
X135193066Y-101442780D02*
X135526400Y-100966590D01*
X135764495Y-101442780D02*
X135764495Y-100442780D01*
X135383542Y-100442780D01*
X135288304Y-100490400D01*
X135240685Y-100538019D01*
X135193066Y-100633257D01*
X135193066Y-100776114D01*
X135240685Y-100871352D01*
X135288304Y-100918971D01*
X135383542Y-100966590D01*
X135764495Y-100966590D01*
X134240685Y-101442780D02*
X134812114Y-101442780D01*
X134526400Y-101442780D02*
X134526400Y-100442780D01*
X134621638Y-100585638D01*
X134716876Y-100680876D01*
X134812114Y-100728495D01*
X139541238Y-100496619D02*
X139636476Y-100449000D01*
X139731714Y-100353761D01*
X139874571Y-100210904D01*
X139969809Y-100163285D01*
X140065047Y-100163285D01*
X140017428Y-100401380D02*
X140112666Y-100353761D01*
X140207904Y-100258523D01*
X140255523Y-100068047D01*
X140255523Y-99734714D01*
X140207904Y-99544238D01*
X140112666Y-99449000D01*
X140017428Y-99401380D01*
X139826952Y-99401380D01*
X139731714Y-99449000D01*
X139636476Y-99544238D01*
X139588857Y-99734714D01*
X139588857Y-100068047D01*
X139636476Y-100258523D01*
X139731714Y-100353761D01*
X139826952Y-100401380D01*
X140017428Y-100401380D01*
X138636476Y-100401380D02*
X139207904Y-100401380D01*
X138922190Y-100401380D02*
X138922190Y-99401380D01*
X139017428Y-99544238D01*
X139112666Y-99639476D01*
X139207904Y-99687095D01*
X142454380Y-124380666D02*
X143168666Y-124380666D01*
X143311523Y-124333047D01*
X143406761Y-124237809D01*
X143454380Y-124094952D01*
X143454380Y-123999714D01*
X143454380Y-125380666D02*
X143454380Y-124809238D01*
X143454380Y-125094952D02*
X142454380Y-125094952D01*
X142597238Y-124999714D01*
X142692476Y-124904476D01*
X142740095Y-124809238D01*
X137326666Y-121421142D02*
X137374285Y-121468761D01*
X137517142Y-121516380D01*
X137612380Y-121516380D01*
X137755238Y-121468761D01*
X137850476Y-121373523D01*
X137898095Y-121278285D01*
X137945714Y-121087809D01*
X137945714Y-120944952D01*
X137898095Y-120754476D01*
X137850476Y-120659238D01*
X137755238Y-120564000D01*
X137612380Y-120516380D01*
X137517142Y-120516380D01*
X137374285Y-120564000D01*
X137326666Y-120611619D01*
X136945714Y-120611619D02*
X136898095Y-120564000D01*
X136802857Y-120516380D01*
X136564761Y-120516380D01*
X136469523Y-120564000D01*
X136421904Y-120611619D01*
X136374285Y-120706857D01*
X136374285Y-120802095D01*
X136421904Y-120944952D01*
X136993333Y-121516380D01*
X136374285Y-121516380D01*
X134024666Y-118373142D02*
X134072285Y-118420761D01*
X134215142Y-118468380D01*
X134310380Y-118468380D01*
X134453238Y-118420761D01*
X134548476Y-118325523D01*
X134596095Y-118230285D01*
X134643714Y-118039809D01*
X134643714Y-117896952D01*
X134596095Y-117706476D01*
X134548476Y-117611238D01*
X134453238Y-117516000D01*
X134310380Y-117468380D01*
X134215142Y-117468380D01*
X134072285Y-117516000D01*
X134024666Y-117563619D01*
X133072285Y-118468380D02*
X133643714Y-118468380D01*
X133358000Y-118468380D02*
X133358000Y-117468380D01*
X133453238Y-117611238D01*
X133548476Y-117706476D01*
X133643714Y-117754095D01*
M02*
