G04 #@! TF.GenerationSoftware,KiCad,Pcbnew,(5.1.5)-3*
G04 #@! TF.CreationDate,2021-06-10T12:01:20+03:00*
G04 #@! TF.ProjectId,CNC3018Bluetooth,434e4333-3031-4384-926c-7565746f6f74,rev?*
G04 #@! TF.SameCoordinates,Original*
G04 #@! TF.FileFunction,Paste,Top*
G04 #@! TF.FilePolarity,Positive*
%FSLAX46Y46*%
G04 Gerber Fmt 4.6, Leading zero omitted, Abs format (unit mm)*
G04 Created by KiCad (PCBNEW (5.1.5)-3) date 2021-06-10 12:01:20*
%MOMM*%
%LPD*%
G04 APERTURE LIST*
%ADD10C,0.100000*%
G04 APERTURE END LIST*
D10*
G36*
X143483504Y-97974205D02*
G01*
X143507773Y-97977805D01*
X143531571Y-97983766D01*
X143554671Y-97992031D01*
X143576849Y-98002521D01*
X143597893Y-98015134D01*
X143617598Y-98029748D01*
X143635777Y-98046224D01*
X143652253Y-98064403D01*
X143666867Y-98084108D01*
X143679480Y-98105152D01*
X143689970Y-98127330D01*
X143698235Y-98150430D01*
X143704196Y-98174228D01*
X143707796Y-98198497D01*
X143709000Y-98223001D01*
X143709000Y-98723001D01*
X143707796Y-98747505D01*
X143704196Y-98771774D01*
X143698235Y-98795572D01*
X143689970Y-98818672D01*
X143679480Y-98840850D01*
X143666867Y-98861894D01*
X143652253Y-98881599D01*
X143635777Y-98899778D01*
X143617598Y-98916254D01*
X143597893Y-98930868D01*
X143576849Y-98943481D01*
X143554671Y-98953971D01*
X143531571Y-98962236D01*
X143507773Y-98968197D01*
X143483504Y-98971797D01*
X143459000Y-98973001D01*
X142159000Y-98973001D01*
X142134496Y-98971797D01*
X142110227Y-98968197D01*
X142086429Y-98962236D01*
X142063329Y-98953971D01*
X142041151Y-98943481D01*
X142020107Y-98930868D01*
X142000402Y-98916254D01*
X141982223Y-98899778D01*
X141965747Y-98881599D01*
X141951133Y-98861894D01*
X141938520Y-98840850D01*
X141928030Y-98818672D01*
X141919765Y-98795572D01*
X141913804Y-98771774D01*
X141910204Y-98747505D01*
X141909000Y-98723001D01*
X141909000Y-98223001D01*
X141910204Y-98198497D01*
X141913804Y-98174228D01*
X141919765Y-98150430D01*
X141928030Y-98127330D01*
X141938520Y-98105152D01*
X141951133Y-98084108D01*
X141965747Y-98064403D01*
X141982223Y-98046224D01*
X142000402Y-98029748D01*
X142020107Y-98015134D01*
X142041151Y-98002521D01*
X142063329Y-97992031D01*
X142086429Y-97983766D01*
X142110227Y-97977805D01*
X142134496Y-97974205D01*
X142159000Y-97973001D01*
X143459000Y-97973001D01*
X143483504Y-97974205D01*
G37*
G36*
X143483504Y-99474205D02*
G01*
X143507773Y-99477805D01*
X143531571Y-99483766D01*
X143554671Y-99492031D01*
X143576849Y-99502521D01*
X143597893Y-99515134D01*
X143617598Y-99529748D01*
X143635777Y-99546224D01*
X143652253Y-99564403D01*
X143666867Y-99584108D01*
X143679480Y-99605152D01*
X143689970Y-99627330D01*
X143698235Y-99650430D01*
X143704196Y-99674228D01*
X143707796Y-99698497D01*
X143709000Y-99723001D01*
X143709000Y-100223001D01*
X143707796Y-100247505D01*
X143704196Y-100271774D01*
X143698235Y-100295572D01*
X143689970Y-100318672D01*
X143679480Y-100340850D01*
X143666867Y-100361894D01*
X143652253Y-100381599D01*
X143635777Y-100399778D01*
X143617598Y-100416254D01*
X143597893Y-100430868D01*
X143576849Y-100443481D01*
X143554671Y-100453971D01*
X143531571Y-100462236D01*
X143507773Y-100468197D01*
X143483504Y-100471797D01*
X143459000Y-100473001D01*
X142159000Y-100473001D01*
X142134496Y-100471797D01*
X142110227Y-100468197D01*
X142086429Y-100462236D01*
X142063329Y-100453971D01*
X142041151Y-100443481D01*
X142020107Y-100430868D01*
X142000402Y-100416254D01*
X141982223Y-100399778D01*
X141965747Y-100381599D01*
X141951133Y-100361894D01*
X141938520Y-100340850D01*
X141928030Y-100318672D01*
X141919765Y-100295572D01*
X141913804Y-100271774D01*
X141910204Y-100247505D01*
X141909000Y-100223001D01*
X141909000Y-99723001D01*
X141910204Y-99698497D01*
X141913804Y-99674228D01*
X141919765Y-99650430D01*
X141928030Y-99627330D01*
X141938520Y-99605152D01*
X141951133Y-99584108D01*
X141965747Y-99564403D01*
X141982223Y-99546224D01*
X142000402Y-99529748D01*
X142020107Y-99515134D01*
X142041151Y-99502521D01*
X142063329Y-99492031D01*
X142086429Y-99483766D01*
X142110227Y-99477805D01*
X142134496Y-99474205D01*
X142159000Y-99473001D01*
X143459000Y-99473001D01*
X143483504Y-99474205D01*
G37*
G36*
X143483504Y-100974205D02*
G01*
X143507773Y-100977805D01*
X143531571Y-100983766D01*
X143554671Y-100992031D01*
X143576849Y-101002521D01*
X143597893Y-101015134D01*
X143617598Y-101029748D01*
X143635777Y-101046224D01*
X143652253Y-101064403D01*
X143666867Y-101084108D01*
X143679480Y-101105152D01*
X143689970Y-101127330D01*
X143698235Y-101150430D01*
X143704196Y-101174228D01*
X143707796Y-101198497D01*
X143709000Y-101223001D01*
X143709000Y-101723001D01*
X143707796Y-101747505D01*
X143704196Y-101771774D01*
X143698235Y-101795572D01*
X143689970Y-101818672D01*
X143679480Y-101840850D01*
X143666867Y-101861894D01*
X143652253Y-101881599D01*
X143635777Y-101899778D01*
X143617598Y-101916254D01*
X143597893Y-101930868D01*
X143576849Y-101943481D01*
X143554671Y-101953971D01*
X143531571Y-101962236D01*
X143507773Y-101968197D01*
X143483504Y-101971797D01*
X143459000Y-101973001D01*
X142159000Y-101973001D01*
X142134496Y-101971797D01*
X142110227Y-101968197D01*
X142086429Y-101962236D01*
X142063329Y-101953971D01*
X142041151Y-101943481D01*
X142020107Y-101930868D01*
X142000402Y-101916254D01*
X141982223Y-101899778D01*
X141965747Y-101881599D01*
X141951133Y-101861894D01*
X141938520Y-101840850D01*
X141928030Y-101818672D01*
X141919765Y-101795572D01*
X141913804Y-101771774D01*
X141910204Y-101747505D01*
X141909000Y-101723001D01*
X141909000Y-101223001D01*
X141910204Y-101198497D01*
X141913804Y-101174228D01*
X141919765Y-101150430D01*
X141928030Y-101127330D01*
X141938520Y-101105152D01*
X141951133Y-101084108D01*
X141965747Y-101064403D01*
X141982223Y-101046224D01*
X142000402Y-101029748D01*
X142020107Y-101015134D01*
X142041151Y-101002521D01*
X142063329Y-100992031D01*
X142086429Y-100983766D01*
X142110227Y-100977805D01*
X142134496Y-100974205D01*
X142159000Y-100973001D01*
X143459000Y-100973001D01*
X143483504Y-100974205D01*
G37*
G36*
X143483504Y-102474205D02*
G01*
X143507773Y-102477805D01*
X143531571Y-102483766D01*
X143554671Y-102492031D01*
X143576849Y-102502521D01*
X143597893Y-102515134D01*
X143617598Y-102529748D01*
X143635777Y-102546224D01*
X143652253Y-102564403D01*
X143666867Y-102584108D01*
X143679480Y-102605152D01*
X143689970Y-102627330D01*
X143698235Y-102650430D01*
X143704196Y-102674228D01*
X143707796Y-102698497D01*
X143709000Y-102723001D01*
X143709000Y-103223001D01*
X143707796Y-103247505D01*
X143704196Y-103271774D01*
X143698235Y-103295572D01*
X143689970Y-103318672D01*
X143679480Y-103340850D01*
X143666867Y-103361894D01*
X143652253Y-103381599D01*
X143635777Y-103399778D01*
X143617598Y-103416254D01*
X143597893Y-103430868D01*
X143576849Y-103443481D01*
X143554671Y-103453971D01*
X143531571Y-103462236D01*
X143507773Y-103468197D01*
X143483504Y-103471797D01*
X143459000Y-103473001D01*
X142159000Y-103473001D01*
X142134496Y-103471797D01*
X142110227Y-103468197D01*
X142086429Y-103462236D01*
X142063329Y-103453971D01*
X142041151Y-103443481D01*
X142020107Y-103430868D01*
X142000402Y-103416254D01*
X141982223Y-103399778D01*
X141965747Y-103381599D01*
X141951133Y-103361894D01*
X141938520Y-103340850D01*
X141928030Y-103318672D01*
X141919765Y-103295572D01*
X141913804Y-103271774D01*
X141910204Y-103247505D01*
X141909000Y-103223001D01*
X141909000Y-102723001D01*
X141910204Y-102698497D01*
X141913804Y-102674228D01*
X141919765Y-102650430D01*
X141928030Y-102627330D01*
X141938520Y-102605152D01*
X141951133Y-102584108D01*
X141965747Y-102564403D01*
X141982223Y-102546224D01*
X142000402Y-102529748D01*
X142020107Y-102515134D01*
X142041151Y-102502521D01*
X142063329Y-102492031D01*
X142086429Y-102483766D01*
X142110227Y-102477805D01*
X142134496Y-102474205D01*
X142159000Y-102473001D01*
X143459000Y-102473001D01*
X143483504Y-102474205D01*
G37*
G36*
X143483504Y-103974205D02*
G01*
X143507773Y-103977805D01*
X143531571Y-103983766D01*
X143554671Y-103992031D01*
X143576849Y-104002521D01*
X143597893Y-104015134D01*
X143617598Y-104029748D01*
X143635777Y-104046224D01*
X143652253Y-104064403D01*
X143666867Y-104084108D01*
X143679480Y-104105152D01*
X143689970Y-104127330D01*
X143698235Y-104150430D01*
X143704196Y-104174228D01*
X143707796Y-104198497D01*
X143709000Y-104223001D01*
X143709000Y-104723001D01*
X143707796Y-104747505D01*
X143704196Y-104771774D01*
X143698235Y-104795572D01*
X143689970Y-104818672D01*
X143679480Y-104840850D01*
X143666867Y-104861894D01*
X143652253Y-104881599D01*
X143635777Y-104899778D01*
X143617598Y-104916254D01*
X143597893Y-104930868D01*
X143576849Y-104943481D01*
X143554671Y-104953971D01*
X143531571Y-104962236D01*
X143507773Y-104968197D01*
X143483504Y-104971797D01*
X143459000Y-104973001D01*
X142159000Y-104973001D01*
X142134496Y-104971797D01*
X142110227Y-104968197D01*
X142086429Y-104962236D01*
X142063329Y-104953971D01*
X142041151Y-104943481D01*
X142020107Y-104930868D01*
X142000402Y-104916254D01*
X141982223Y-104899778D01*
X141965747Y-104881599D01*
X141951133Y-104861894D01*
X141938520Y-104840850D01*
X141928030Y-104818672D01*
X141919765Y-104795572D01*
X141913804Y-104771774D01*
X141910204Y-104747505D01*
X141909000Y-104723001D01*
X141909000Y-104223001D01*
X141910204Y-104198497D01*
X141913804Y-104174228D01*
X141919765Y-104150430D01*
X141928030Y-104127330D01*
X141938520Y-104105152D01*
X141951133Y-104084108D01*
X141965747Y-104064403D01*
X141982223Y-104046224D01*
X142000402Y-104029748D01*
X142020107Y-104015134D01*
X142041151Y-104002521D01*
X142063329Y-103992031D01*
X142086429Y-103983766D01*
X142110227Y-103977805D01*
X142134496Y-103974205D01*
X142159000Y-103973001D01*
X143459000Y-103973001D01*
X143483504Y-103974205D01*
G37*
G36*
X143483504Y-105474205D02*
G01*
X143507773Y-105477805D01*
X143531571Y-105483766D01*
X143554671Y-105492031D01*
X143576849Y-105502521D01*
X143597893Y-105515134D01*
X143617598Y-105529748D01*
X143635777Y-105546224D01*
X143652253Y-105564403D01*
X143666867Y-105584108D01*
X143679480Y-105605152D01*
X143689970Y-105627330D01*
X143698235Y-105650430D01*
X143704196Y-105674228D01*
X143707796Y-105698497D01*
X143709000Y-105723001D01*
X143709000Y-106223001D01*
X143707796Y-106247505D01*
X143704196Y-106271774D01*
X143698235Y-106295572D01*
X143689970Y-106318672D01*
X143679480Y-106340850D01*
X143666867Y-106361894D01*
X143652253Y-106381599D01*
X143635777Y-106399778D01*
X143617598Y-106416254D01*
X143597893Y-106430868D01*
X143576849Y-106443481D01*
X143554671Y-106453971D01*
X143531571Y-106462236D01*
X143507773Y-106468197D01*
X143483504Y-106471797D01*
X143459000Y-106473001D01*
X142159000Y-106473001D01*
X142134496Y-106471797D01*
X142110227Y-106468197D01*
X142086429Y-106462236D01*
X142063329Y-106453971D01*
X142041151Y-106443481D01*
X142020107Y-106430868D01*
X142000402Y-106416254D01*
X141982223Y-106399778D01*
X141965747Y-106381599D01*
X141951133Y-106361894D01*
X141938520Y-106340850D01*
X141928030Y-106318672D01*
X141919765Y-106295572D01*
X141913804Y-106271774D01*
X141910204Y-106247505D01*
X141909000Y-106223001D01*
X141909000Y-105723001D01*
X141910204Y-105698497D01*
X141913804Y-105674228D01*
X141919765Y-105650430D01*
X141928030Y-105627330D01*
X141938520Y-105605152D01*
X141951133Y-105584108D01*
X141965747Y-105564403D01*
X141982223Y-105546224D01*
X142000402Y-105529748D01*
X142020107Y-105515134D01*
X142041151Y-105502521D01*
X142063329Y-105492031D01*
X142086429Y-105483766D01*
X142110227Y-105477805D01*
X142134496Y-105474205D01*
X142159000Y-105473001D01*
X143459000Y-105473001D01*
X143483504Y-105474205D01*
G37*
G36*
X143483504Y-106974205D02*
G01*
X143507773Y-106977805D01*
X143531571Y-106983766D01*
X143554671Y-106992031D01*
X143576849Y-107002521D01*
X143597893Y-107015134D01*
X143617598Y-107029748D01*
X143635777Y-107046224D01*
X143652253Y-107064403D01*
X143666867Y-107084108D01*
X143679480Y-107105152D01*
X143689970Y-107127330D01*
X143698235Y-107150430D01*
X143704196Y-107174228D01*
X143707796Y-107198497D01*
X143709000Y-107223001D01*
X143709000Y-107723001D01*
X143707796Y-107747505D01*
X143704196Y-107771774D01*
X143698235Y-107795572D01*
X143689970Y-107818672D01*
X143679480Y-107840850D01*
X143666867Y-107861894D01*
X143652253Y-107881599D01*
X143635777Y-107899778D01*
X143617598Y-107916254D01*
X143597893Y-107930868D01*
X143576849Y-107943481D01*
X143554671Y-107953971D01*
X143531571Y-107962236D01*
X143507773Y-107968197D01*
X143483504Y-107971797D01*
X143459000Y-107973001D01*
X142159000Y-107973001D01*
X142134496Y-107971797D01*
X142110227Y-107968197D01*
X142086429Y-107962236D01*
X142063329Y-107953971D01*
X142041151Y-107943481D01*
X142020107Y-107930868D01*
X142000402Y-107916254D01*
X141982223Y-107899778D01*
X141965747Y-107881599D01*
X141951133Y-107861894D01*
X141938520Y-107840850D01*
X141928030Y-107818672D01*
X141919765Y-107795572D01*
X141913804Y-107771774D01*
X141910204Y-107747505D01*
X141909000Y-107723001D01*
X141909000Y-107223001D01*
X141910204Y-107198497D01*
X141913804Y-107174228D01*
X141919765Y-107150430D01*
X141928030Y-107127330D01*
X141938520Y-107105152D01*
X141951133Y-107084108D01*
X141965747Y-107064403D01*
X141982223Y-107046224D01*
X142000402Y-107029748D01*
X142020107Y-107015134D01*
X142041151Y-107002521D01*
X142063329Y-106992031D01*
X142086429Y-106983766D01*
X142110227Y-106977805D01*
X142134496Y-106974205D01*
X142159000Y-106973001D01*
X143459000Y-106973001D01*
X143483504Y-106974205D01*
G37*
G36*
X143483504Y-108474205D02*
G01*
X143507773Y-108477805D01*
X143531571Y-108483766D01*
X143554671Y-108492031D01*
X143576849Y-108502521D01*
X143597893Y-108515134D01*
X143617598Y-108529748D01*
X143635777Y-108546224D01*
X143652253Y-108564403D01*
X143666867Y-108584108D01*
X143679480Y-108605152D01*
X143689970Y-108627330D01*
X143698235Y-108650430D01*
X143704196Y-108674228D01*
X143707796Y-108698497D01*
X143709000Y-108723001D01*
X143709000Y-109223001D01*
X143707796Y-109247505D01*
X143704196Y-109271774D01*
X143698235Y-109295572D01*
X143689970Y-109318672D01*
X143679480Y-109340850D01*
X143666867Y-109361894D01*
X143652253Y-109381599D01*
X143635777Y-109399778D01*
X143617598Y-109416254D01*
X143597893Y-109430868D01*
X143576849Y-109443481D01*
X143554671Y-109453971D01*
X143531571Y-109462236D01*
X143507773Y-109468197D01*
X143483504Y-109471797D01*
X143459000Y-109473001D01*
X142159000Y-109473001D01*
X142134496Y-109471797D01*
X142110227Y-109468197D01*
X142086429Y-109462236D01*
X142063329Y-109453971D01*
X142041151Y-109443481D01*
X142020107Y-109430868D01*
X142000402Y-109416254D01*
X141982223Y-109399778D01*
X141965747Y-109381599D01*
X141951133Y-109361894D01*
X141938520Y-109340850D01*
X141928030Y-109318672D01*
X141919765Y-109295572D01*
X141913804Y-109271774D01*
X141910204Y-109247505D01*
X141909000Y-109223001D01*
X141909000Y-108723001D01*
X141910204Y-108698497D01*
X141913804Y-108674228D01*
X141919765Y-108650430D01*
X141928030Y-108627330D01*
X141938520Y-108605152D01*
X141951133Y-108584108D01*
X141965747Y-108564403D01*
X141982223Y-108546224D01*
X142000402Y-108529748D01*
X142020107Y-108515134D01*
X142041151Y-108502521D01*
X142063329Y-108492031D01*
X142086429Y-108483766D01*
X142110227Y-108477805D01*
X142134496Y-108474205D01*
X142159000Y-108473001D01*
X143459000Y-108473001D01*
X143483504Y-108474205D01*
G37*
G36*
X143483504Y-109974205D02*
G01*
X143507773Y-109977805D01*
X143531571Y-109983766D01*
X143554671Y-109992031D01*
X143576849Y-110002521D01*
X143597893Y-110015134D01*
X143617598Y-110029748D01*
X143635777Y-110046224D01*
X143652253Y-110064403D01*
X143666867Y-110084108D01*
X143679480Y-110105152D01*
X143689970Y-110127330D01*
X143698235Y-110150430D01*
X143704196Y-110174228D01*
X143707796Y-110198497D01*
X143709000Y-110223001D01*
X143709000Y-110723001D01*
X143707796Y-110747505D01*
X143704196Y-110771774D01*
X143698235Y-110795572D01*
X143689970Y-110818672D01*
X143679480Y-110840850D01*
X143666867Y-110861894D01*
X143652253Y-110881599D01*
X143635777Y-110899778D01*
X143617598Y-110916254D01*
X143597893Y-110930868D01*
X143576849Y-110943481D01*
X143554671Y-110953971D01*
X143531571Y-110962236D01*
X143507773Y-110968197D01*
X143483504Y-110971797D01*
X143459000Y-110973001D01*
X142159000Y-110973001D01*
X142134496Y-110971797D01*
X142110227Y-110968197D01*
X142086429Y-110962236D01*
X142063329Y-110953971D01*
X142041151Y-110943481D01*
X142020107Y-110930868D01*
X142000402Y-110916254D01*
X141982223Y-110899778D01*
X141965747Y-110881599D01*
X141951133Y-110861894D01*
X141938520Y-110840850D01*
X141928030Y-110818672D01*
X141919765Y-110795572D01*
X141913804Y-110771774D01*
X141910204Y-110747505D01*
X141909000Y-110723001D01*
X141909000Y-110223001D01*
X141910204Y-110198497D01*
X141913804Y-110174228D01*
X141919765Y-110150430D01*
X141928030Y-110127330D01*
X141938520Y-110105152D01*
X141951133Y-110084108D01*
X141965747Y-110064403D01*
X141982223Y-110046224D01*
X142000402Y-110029748D01*
X142020107Y-110015134D01*
X142041151Y-110002521D01*
X142063329Y-109992031D01*
X142086429Y-109983766D01*
X142110227Y-109977805D01*
X142134496Y-109974205D01*
X142159000Y-109973001D01*
X143459000Y-109973001D01*
X143483504Y-109974205D01*
G37*
G36*
X143483504Y-111474205D02*
G01*
X143507773Y-111477805D01*
X143531571Y-111483766D01*
X143554671Y-111492031D01*
X143576849Y-111502521D01*
X143597893Y-111515134D01*
X143617598Y-111529748D01*
X143635777Y-111546224D01*
X143652253Y-111564403D01*
X143666867Y-111584108D01*
X143679480Y-111605152D01*
X143689970Y-111627330D01*
X143698235Y-111650430D01*
X143704196Y-111674228D01*
X143707796Y-111698497D01*
X143709000Y-111723001D01*
X143709000Y-112223001D01*
X143707796Y-112247505D01*
X143704196Y-112271774D01*
X143698235Y-112295572D01*
X143689970Y-112318672D01*
X143679480Y-112340850D01*
X143666867Y-112361894D01*
X143652253Y-112381599D01*
X143635777Y-112399778D01*
X143617598Y-112416254D01*
X143597893Y-112430868D01*
X143576849Y-112443481D01*
X143554671Y-112453971D01*
X143531571Y-112462236D01*
X143507773Y-112468197D01*
X143483504Y-112471797D01*
X143459000Y-112473001D01*
X142159000Y-112473001D01*
X142134496Y-112471797D01*
X142110227Y-112468197D01*
X142086429Y-112462236D01*
X142063329Y-112453971D01*
X142041151Y-112443481D01*
X142020107Y-112430868D01*
X142000402Y-112416254D01*
X141982223Y-112399778D01*
X141965747Y-112381599D01*
X141951133Y-112361894D01*
X141938520Y-112340850D01*
X141928030Y-112318672D01*
X141919765Y-112295572D01*
X141913804Y-112271774D01*
X141910204Y-112247505D01*
X141909000Y-112223001D01*
X141909000Y-111723001D01*
X141910204Y-111698497D01*
X141913804Y-111674228D01*
X141919765Y-111650430D01*
X141928030Y-111627330D01*
X141938520Y-111605152D01*
X141951133Y-111584108D01*
X141965747Y-111564403D01*
X141982223Y-111546224D01*
X142000402Y-111529748D01*
X142020107Y-111515134D01*
X142041151Y-111502521D01*
X142063329Y-111492031D01*
X142086429Y-111483766D01*
X142110227Y-111477805D01*
X142134496Y-111474205D01*
X142159000Y-111473001D01*
X143459000Y-111473001D01*
X143483504Y-111474205D01*
G37*
G36*
X143483504Y-112974205D02*
G01*
X143507773Y-112977805D01*
X143531571Y-112983766D01*
X143554671Y-112992031D01*
X143576849Y-113002521D01*
X143597893Y-113015134D01*
X143617598Y-113029748D01*
X143635777Y-113046224D01*
X143652253Y-113064403D01*
X143666867Y-113084108D01*
X143679480Y-113105152D01*
X143689970Y-113127330D01*
X143698235Y-113150430D01*
X143704196Y-113174228D01*
X143707796Y-113198497D01*
X143709000Y-113223001D01*
X143709000Y-113723001D01*
X143707796Y-113747505D01*
X143704196Y-113771774D01*
X143698235Y-113795572D01*
X143689970Y-113818672D01*
X143679480Y-113840850D01*
X143666867Y-113861894D01*
X143652253Y-113881599D01*
X143635777Y-113899778D01*
X143617598Y-113916254D01*
X143597893Y-113930868D01*
X143576849Y-113943481D01*
X143554671Y-113953971D01*
X143531571Y-113962236D01*
X143507773Y-113968197D01*
X143483504Y-113971797D01*
X143459000Y-113973001D01*
X142159000Y-113973001D01*
X142134496Y-113971797D01*
X142110227Y-113968197D01*
X142086429Y-113962236D01*
X142063329Y-113953971D01*
X142041151Y-113943481D01*
X142020107Y-113930868D01*
X142000402Y-113916254D01*
X141982223Y-113899778D01*
X141965747Y-113881599D01*
X141951133Y-113861894D01*
X141938520Y-113840850D01*
X141928030Y-113818672D01*
X141919765Y-113795572D01*
X141913804Y-113771774D01*
X141910204Y-113747505D01*
X141909000Y-113723001D01*
X141909000Y-113223001D01*
X141910204Y-113198497D01*
X141913804Y-113174228D01*
X141919765Y-113150430D01*
X141928030Y-113127330D01*
X141938520Y-113105152D01*
X141951133Y-113084108D01*
X141965747Y-113064403D01*
X141982223Y-113046224D01*
X142000402Y-113029748D01*
X142020107Y-113015134D01*
X142041151Y-113002521D01*
X142063329Y-112992031D01*
X142086429Y-112983766D01*
X142110227Y-112977805D01*
X142134496Y-112974205D01*
X142159000Y-112973001D01*
X143459000Y-112973001D01*
X143483504Y-112974205D01*
G37*
G36*
X143483504Y-114474205D02*
G01*
X143507773Y-114477805D01*
X143531571Y-114483766D01*
X143554671Y-114492031D01*
X143576849Y-114502521D01*
X143597893Y-114515134D01*
X143617598Y-114529748D01*
X143635777Y-114546224D01*
X143652253Y-114564403D01*
X143666867Y-114584108D01*
X143679480Y-114605152D01*
X143689970Y-114627330D01*
X143698235Y-114650430D01*
X143704196Y-114674228D01*
X143707796Y-114698497D01*
X143709000Y-114723001D01*
X143709000Y-115223001D01*
X143707796Y-115247505D01*
X143704196Y-115271774D01*
X143698235Y-115295572D01*
X143689970Y-115318672D01*
X143679480Y-115340850D01*
X143666867Y-115361894D01*
X143652253Y-115381599D01*
X143635777Y-115399778D01*
X143617598Y-115416254D01*
X143597893Y-115430868D01*
X143576849Y-115443481D01*
X143554671Y-115453971D01*
X143531571Y-115462236D01*
X143507773Y-115468197D01*
X143483504Y-115471797D01*
X143459000Y-115473001D01*
X142159000Y-115473001D01*
X142134496Y-115471797D01*
X142110227Y-115468197D01*
X142086429Y-115462236D01*
X142063329Y-115453971D01*
X142041151Y-115443481D01*
X142020107Y-115430868D01*
X142000402Y-115416254D01*
X141982223Y-115399778D01*
X141965747Y-115381599D01*
X141951133Y-115361894D01*
X141938520Y-115340850D01*
X141928030Y-115318672D01*
X141919765Y-115295572D01*
X141913804Y-115271774D01*
X141910204Y-115247505D01*
X141909000Y-115223001D01*
X141909000Y-114723001D01*
X141910204Y-114698497D01*
X141913804Y-114674228D01*
X141919765Y-114650430D01*
X141928030Y-114627330D01*
X141938520Y-114605152D01*
X141951133Y-114584108D01*
X141965747Y-114564403D01*
X141982223Y-114546224D01*
X142000402Y-114529748D01*
X142020107Y-114515134D01*
X142041151Y-114502521D01*
X142063329Y-114492031D01*
X142086429Y-114483766D01*
X142110227Y-114477805D01*
X142134496Y-114474205D01*
X142159000Y-114473001D01*
X143459000Y-114473001D01*
X143483504Y-114474205D01*
G37*
G36*
X143483504Y-115974205D02*
G01*
X143507773Y-115977805D01*
X143531571Y-115983766D01*
X143554671Y-115992031D01*
X143576849Y-116002521D01*
X143597893Y-116015134D01*
X143617598Y-116029748D01*
X143635777Y-116046224D01*
X143652253Y-116064403D01*
X143666867Y-116084108D01*
X143679480Y-116105152D01*
X143689970Y-116127330D01*
X143698235Y-116150430D01*
X143704196Y-116174228D01*
X143707796Y-116198497D01*
X143709000Y-116223001D01*
X143709000Y-116723001D01*
X143707796Y-116747505D01*
X143704196Y-116771774D01*
X143698235Y-116795572D01*
X143689970Y-116818672D01*
X143679480Y-116840850D01*
X143666867Y-116861894D01*
X143652253Y-116881599D01*
X143635777Y-116899778D01*
X143617598Y-116916254D01*
X143597893Y-116930868D01*
X143576849Y-116943481D01*
X143554671Y-116953971D01*
X143531571Y-116962236D01*
X143507773Y-116968197D01*
X143483504Y-116971797D01*
X143459000Y-116973001D01*
X142159000Y-116973001D01*
X142134496Y-116971797D01*
X142110227Y-116968197D01*
X142086429Y-116962236D01*
X142063329Y-116953971D01*
X142041151Y-116943481D01*
X142020107Y-116930868D01*
X142000402Y-116916254D01*
X141982223Y-116899778D01*
X141965747Y-116881599D01*
X141951133Y-116861894D01*
X141938520Y-116840850D01*
X141928030Y-116818672D01*
X141919765Y-116795572D01*
X141913804Y-116771774D01*
X141910204Y-116747505D01*
X141909000Y-116723001D01*
X141909000Y-116223001D01*
X141910204Y-116198497D01*
X141913804Y-116174228D01*
X141919765Y-116150430D01*
X141928030Y-116127330D01*
X141938520Y-116105152D01*
X141951133Y-116084108D01*
X141965747Y-116064403D01*
X141982223Y-116046224D01*
X142000402Y-116029748D01*
X142020107Y-116015134D01*
X142041151Y-116002521D01*
X142063329Y-115992031D01*
X142086429Y-115983766D01*
X142110227Y-115977805D01*
X142134496Y-115974205D01*
X142159000Y-115973001D01*
X143459000Y-115973001D01*
X143483504Y-115974205D01*
G37*
G36*
X142083504Y-117324205D02*
G01*
X142107773Y-117327805D01*
X142131571Y-117333766D01*
X142154671Y-117342031D01*
X142176849Y-117352521D01*
X142197893Y-117365134D01*
X142217598Y-117379748D01*
X142235777Y-117396224D01*
X142252253Y-117414403D01*
X142266867Y-117434108D01*
X142279480Y-117455152D01*
X142289970Y-117477330D01*
X142298235Y-117500430D01*
X142304196Y-117524228D01*
X142307796Y-117548497D01*
X142309000Y-117573001D01*
X142309000Y-118873001D01*
X142307796Y-118897505D01*
X142304196Y-118921774D01*
X142298235Y-118945572D01*
X142289970Y-118968672D01*
X142279480Y-118990850D01*
X142266867Y-119011894D01*
X142252253Y-119031599D01*
X142235777Y-119049778D01*
X142217598Y-119066254D01*
X142197893Y-119080868D01*
X142176849Y-119093481D01*
X142154671Y-119103971D01*
X142131571Y-119112236D01*
X142107773Y-119118197D01*
X142083504Y-119121797D01*
X142059000Y-119123001D01*
X141559000Y-119123001D01*
X141534496Y-119121797D01*
X141510227Y-119118197D01*
X141486429Y-119112236D01*
X141463329Y-119103971D01*
X141441151Y-119093481D01*
X141420107Y-119080868D01*
X141400402Y-119066254D01*
X141382223Y-119049778D01*
X141365747Y-119031599D01*
X141351133Y-119011894D01*
X141338520Y-118990850D01*
X141328030Y-118968672D01*
X141319765Y-118945572D01*
X141313804Y-118921774D01*
X141310204Y-118897505D01*
X141309000Y-118873001D01*
X141309000Y-117573001D01*
X141310204Y-117548497D01*
X141313804Y-117524228D01*
X141319765Y-117500430D01*
X141328030Y-117477330D01*
X141338520Y-117455152D01*
X141351133Y-117434108D01*
X141365747Y-117414403D01*
X141382223Y-117396224D01*
X141400402Y-117379748D01*
X141420107Y-117365134D01*
X141441151Y-117352521D01*
X141463329Y-117342031D01*
X141486429Y-117333766D01*
X141510227Y-117327805D01*
X141534496Y-117324205D01*
X141559000Y-117323001D01*
X142059000Y-117323001D01*
X142083504Y-117324205D01*
G37*
G36*
X140583504Y-117324205D02*
G01*
X140607773Y-117327805D01*
X140631571Y-117333766D01*
X140654671Y-117342031D01*
X140676849Y-117352521D01*
X140697893Y-117365134D01*
X140717598Y-117379748D01*
X140735777Y-117396224D01*
X140752253Y-117414403D01*
X140766867Y-117434108D01*
X140779480Y-117455152D01*
X140789970Y-117477330D01*
X140798235Y-117500430D01*
X140804196Y-117524228D01*
X140807796Y-117548497D01*
X140809000Y-117573001D01*
X140809000Y-118873001D01*
X140807796Y-118897505D01*
X140804196Y-118921774D01*
X140798235Y-118945572D01*
X140789970Y-118968672D01*
X140779480Y-118990850D01*
X140766867Y-119011894D01*
X140752253Y-119031599D01*
X140735777Y-119049778D01*
X140717598Y-119066254D01*
X140697893Y-119080868D01*
X140676849Y-119093481D01*
X140654671Y-119103971D01*
X140631571Y-119112236D01*
X140607773Y-119118197D01*
X140583504Y-119121797D01*
X140559000Y-119123001D01*
X140059000Y-119123001D01*
X140034496Y-119121797D01*
X140010227Y-119118197D01*
X139986429Y-119112236D01*
X139963329Y-119103971D01*
X139941151Y-119093481D01*
X139920107Y-119080868D01*
X139900402Y-119066254D01*
X139882223Y-119049778D01*
X139865747Y-119031599D01*
X139851133Y-119011894D01*
X139838520Y-118990850D01*
X139828030Y-118968672D01*
X139819765Y-118945572D01*
X139813804Y-118921774D01*
X139810204Y-118897505D01*
X139809000Y-118873001D01*
X139809000Y-117573001D01*
X139810204Y-117548497D01*
X139813804Y-117524228D01*
X139819765Y-117500430D01*
X139828030Y-117477330D01*
X139838520Y-117455152D01*
X139851133Y-117434108D01*
X139865747Y-117414403D01*
X139882223Y-117396224D01*
X139900402Y-117379748D01*
X139920107Y-117365134D01*
X139941151Y-117352521D01*
X139963329Y-117342031D01*
X139986429Y-117333766D01*
X140010227Y-117327805D01*
X140034496Y-117324205D01*
X140059000Y-117323001D01*
X140559000Y-117323001D01*
X140583504Y-117324205D01*
G37*
G36*
X139083504Y-117324205D02*
G01*
X139107773Y-117327805D01*
X139131571Y-117333766D01*
X139154671Y-117342031D01*
X139176849Y-117352521D01*
X139197893Y-117365134D01*
X139217598Y-117379748D01*
X139235777Y-117396224D01*
X139252253Y-117414403D01*
X139266867Y-117434108D01*
X139279480Y-117455152D01*
X139289970Y-117477330D01*
X139298235Y-117500430D01*
X139304196Y-117524228D01*
X139307796Y-117548497D01*
X139309000Y-117573001D01*
X139309000Y-118873001D01*
X139307796Y-118897505D01*
X139304196Y-118921774D01*
X139298235Y-118945572D01*
X139289970Y-118968672D01*
X139279480Y-118990850D01*
X139266867Y-119011894D01*
X139252253Y-119031599D01*
X139235777Y-119049778D01*
X139217598Y-119066254D01*
X139197893Y-119080868D01*
X139176849Y-119093481D01*
X139154671Y-119103971D01*
X139131571Y-119112236D01*
X139107773Y-119118197D01*
X139083504Y-119121797D01*
X139059000Y-119123001D01*
X138559000Y-119123001D01*
X138534496Y-119121797D01*
X138510227Y-119118197D01*
X138486429Y-119112236D01*
X138463329Y-119103971D01*
X138441151Y-119093481D01*
X138420107Y-119080868D01*
X138400402Y-119066254D01*
X138382223Y-119049778D01*
X138365747Y-119031599D01*
X138351133Y-119011894D01*
X138338520Y-118990850D01*
X138328030Y-118968672D01*
X138319765Y-118945572D01*
X138313804Y-118921774D01*
X138310204Y-118897505D01*
X138309000Y-118873001D01*
X138309000Y-117573001D01*
X138310204Y-117548497D01*
X138313804Y-117524228D01*
X138319765Y-117500430D01*
X138328030Y-117477330D01*
X138338520Y-117455152D01*
X138351133Y-117434108D01*
X138365747Y-117414403D01*
X138382223Y-117396224D01*
X138400402Y-117379748D01*
X138420107Y-117365134D01*
X138441151Y-117352521D01*
X138463329Y-117342031D01*
X138486429Y-117333766D01*
X138510227Y-117327805D01*
X138534496Y-117324205D01*
X138559000Y-117323001D01*
X139059000Y-117323001D01*
X139083504Y-117324205D01*
G37*
G36*
X137583504Y-117324205D02*
G01*
X137607773Y-117327805D01*
X137631571Y-117333766D01*
X137654671Y-117342031D01*
X137676849Y-117352521D01*
X137697893Y-117365134D01*
X137717598Y-117379748D01*
X137735777Y-117396224D01*
X137752253Y-117414403D01*
X137766867Y-117434108D01*
X137779480Y-117455152D01*
X137789970Y-117477330D01*
X137798235Y-117500430D01*
X137804196Y-117524228D01*
X137807796Y-117548497D01*
X137809000Y-117573001D01*
X137809000Y-118873001D01*
X137807796Y-118897505D01*
X137804196Y-118921774D01*
X137798235Y-118945572D01*
X137789970Y-118968672D01*
X137779480Y-118990850D01*
X137766867Y-119011894D01*
X137752253Y-119031599D01*
X137735777Y-119049778D01*
X137717598Y-119066254D01*
X137697893Y-119080868D01*
X137676849Y-119093481D01*
X137654671Y-119103971D01*
X137631571Y-119112236D01*
X137607773Y-119118197D01*
X137583504Y-119121797D01*
X137559000Y-119123001D01*
X137059000Y-119123001D01*
X137034496Y-119121797D01*
X137010227Y-119118197D01*
X136986429Y-119112236D01*
X136963329Y-119103971D01*
X136941151Y-119093481D01*
X136920107Y-119080868D01*
X136900402Y-119066254D01*
X136882223Y-119049778D01*
X136865747Y-119031599D01*
X136851133Y-119011894D01*
X136838520Y-118990850D01*
X136828030Y-118968672D01*
X136819765Y-118945572D01*
X136813804Y-118921774D01*
X136810204Y-118897505D01*
X136809000Y-118873001D01*
X136809000Y-117573001D01*
X136810204Y-117548497D01*
X136813804Y-117524228D01*
X136819765Y-117500430D01*
X136828030Y-117477330D01*
X136838520Y-117455152D01*
X136851133Y-117434108D01*
X136865747Y-117414403D01*
X136882223Y-117396224D01*
X136900402Y-117379748D01*
X136920107Y-117365134D01*
X136941151Y-117352521D01*
X136963329Y-117342031D01*
X136986429Y-117333766D01*
X137010227Y-117327805D01*
X137034496Y-117324205D01*
X137059000Y-117323001D01*
X137559000Y-117323001D01*
X137583504Y-117324205D01*
G37*
G36*
X136083504Y-117324205D02*
G01*
X136107773Y-117327805D01*
X136131571Y-117333766D01*
X136154671Y-117342031D01*
X136176849Y-117352521D01*
X136197893Y-117365134D01*
X136217598Y-117379748D01*
X136235777Y-117396224D01*
X136252253Y-117414403D01*
X136266867Y-117434108D01*
X136279480Y-117455152D01*
X136289970Y-117477330D01*
X136298235Y-117500430D01*
X136304196Y-117524228D01*
X136307796Y-117548497D01*
X136309000Y-117573001D01*
X136309000Y-118873001D01*
X136307796Y-118897505D01*
X136304196Y-118921774D01*
X136298235Y-118945572D01*
X136289970Y-118968672D01*
X136279480Y-118990850D01*
X136266867Y-119011894D01*
X136252253Y-119031599D01*
X136235777Y-119049778D01*
X136217598Y-119066254D01*
X136197893Y-119080868D01*
X136176849Y-119093481D01*
X136154671Y-119103971D01*
X136131571Y-119112236D01*
X136107773Y-119118197D01*
X136083504Y-119121797D01*
X136059000Y-119123001D01*
X135559000Y-119123001D01*
X135534496Y-119121797D01*
X135510227Y-119118197D01*
X135486429Y-119112236D01*
X135463329Y-119103971D01*
X135441151Y-119093481D01*
X135420107Y-119080868D01*
X135400402Y-119066254D01*
X135382223Y-119049778D01*
X135365747Y-119031599D01*
X135351133Y-119011894D01*
X135338520Y-118990850D01*
X135328030Y-118968672D01*
X135319765Y-118945572D01*
X135313804Y-118921774D01*
X135310204Y-118897505D01*
X135309000Y-118873001D01*
X135309000Y-117573001D01*
X135310204Y-117548497D01*
X135313804Y-117524228D01*
X135319765Y-117500430D01*
X135328030Y-117477330D01*
X135338520Y-117455152D01*
X135351133Y-117434108D01*
X135365747Y-117414403D01*
X135382223Y-117396224D01*
X135400402Y-117379748D01*
X135420107Y-117365134D01*
X135441151Y-117352521D01*
X135463329Y-117342031D01*
X135486429Y-117333766D01*
X135510227Y-117327805D01*
X135534496Y-117324205D01*
X135559000Y-117323001D01*
X136059000Y-117323001D01*
X136083504Y-117324205D01*
G37*
G36*
X134583504Y-117324205D02*
G01*
X134607773Y-117327805D01*
X134631571Y-117333766D01*
X134654671Y-117342031D01*
X134676849Y-117352521D01*
X134697893Y-117365134D01*
X134717598Y-117379748D01*
X134735777Y-117396224D01*
X134752253Y-117414403D01*
X134766867Y-117434108D01*
X134779480Y-117455152D01*
X134789970Y-117477330D01*
X134798235Y-117500430D01*
X134804196Y-117524228D01*
X134807796Y-117548497D01*
X134809000Y-117573001D01*
X134809000Y-118873001D01*
X134807796Y-118897505D01*
X134804196Y-118921774D01*
X134798235Y-118945572D01*
X134789970Y-118968672D01*
X134779480Y-118990850D01*
X134766867Y-119011894D01*
X134752253Y-119031599D01*
X134735777Y-119049778D01*
X134717598Y-119066254D01*
X134697893Y-119080868D01*
X134676849Y-119093481D01*
X134654671Y-119103971D01*
X134631571Y-119112236D01*
X134607773Y-119118197D01*
X134583504Y-119121797D01*
X134559000Y-119123001D01*
X134059000Y-119123001D01*
X134034496Y-119121797D01*
X134010227Y-119118197D01*
X133986429Y-119112236D01*
X133963329Y-119103971D01*
X133941151Y-119093481D01*
X133920107Y-119080868D01*
X133900402Y-119066254D01*
X133882223Y-119049778D01*
X133865747Y-119031599D01*
X133851133Y-119011894D01*
X133838520Y-118990850D01*
X133828030Y-118968672D01*
X133819765Y-118945572D01*
X133813804Y-118921774D01*
X133810204Y-118897505D01*
X133809000Y-118873001D01*
X133809000Y-117573001D01*
X133810204Y-117548497D01*
X133813804Y-117524228D01*
X133819765Y-117500430D01*
X133828030Y-117477330D01*
X133838520Y-117455152D01*
X133851133Y-117434108D01*
X133865747Y-117414403D01*
X133882223Y-117396224D01*
X133900402Y-117379748D01*
X133920107Y-117365134D01*
X133941151Y-117352521D01*
X133963329Y-117342031D01*
X133986429Y-117333766D01*
X134010227Y-117327805D01*
X134034496Y-117324205D01*
X134059000Y-117323001D01*
X134559000Y-117323001D01*
X134583504Y-117324205D01*
G37*
G36*
X133083504Y-117324205D02*
G01*
X133107773Y-117327805D01*
X133131571Y-117333766D01*
X133154671Y-117342031D01*
X133176849Y-117352521D01*
X133197893Y-117365134D01*
X133217598Y-117379748D01*
X133235777Y-117396224D01*
X133252253Y-117414403D01*
X133266867Y-117434108D01*
X133279480Y-117455152D01*
X133289970Y-117477330D01*
X133298235Y-117500430D01*
X133304196Y-117524228D01*
X133307796Y-117548497D01*
X133309000Y-117573001D01*
X133309000Y-118873001D01*
X133307796Y-118897505D01*
X133304196Y-118921774D01*
X133298235Y-118945572D01*
X133289970Y-118968672D01*
X133279480Y-118990850D01*
X133266867Y-119011894D01*
X133252253Y-119031599D01*
X133235777Y-119049778D01*
X133217598Y-119066254D01*
X133197893Y-119080868D01*
X133176849Y-119093481D01*
X133154671Y-119103971D01*
X133131571Y-119112236D01*
X133107773Y-119118197D01*
X133083504Y-119121797D01*
X133059000Y-119123001D01*
X132559000Y-119123001D01*
X132534496Y-119121797D01*
X132510227Y-119118197D01*
X132486429Y-119112236D01*
X132463329Y-119103971D01*
X132441151Y-119093481D01*
X132420107Y-119080868D01*
X132400402Y-119066254D01*
X132382223Y-119049778D01*
X132365747Y-119031599D01*
X132351133Y-119011894D01*
X132338520Y-118990850D01*
X132328030Y-118968672D01*
X132319765Y-118945572D01*
X132313804Y-118921774D01*
X132310204Y-118897505D01*
X132309000Y-118873001D01*
X132309000Y-117573001D01*
X132310204Y-117548497D01*
X132313804Y-117524228D01*
X132319765Y-117500430D01*
X132328030Y-117477330D01*
X132338520Y-117455152D01*
X132351133Y-117434108D01*
X132365747Y-117414403D01*
X132382223Y-117396224D01*
X132400402Y-117379748D01*
X132420107Y-117365134D01*
X132441151Y-117352521D01*
X132463329Y-117342031D01*
X132486429Y-117333766D01*
X132510227Y-117327805D01*
X132534496Y-117324205D01*
X132559000Y-117323001D01*
X133059000Y-117323001D01*
X133083504Y-117324205D01*
G37*
G36*
X131583504Y-117324205D02*
G01*
X131607773Y-117327805D01*
X131631571Y-117333766D01*
X131654671Y-117342031D01*
X131676849Y-117352521D01*
X131697893Y-117365134D01*
X131717598Y-117379748D01*
X131735777Y-117396224D01*
X131752253Y-117414403D01*
X131766867Y-117434108D01*
X131779480Y-117455152D01*
X131789970Y-117477330D01*
X131798235Y-117500430D01*
X131804196Y-117524228D01*
X131807796Y-117548497D01*
X131809000Y-117573001D01*
X131809000Y-118873001D01*
X131807796Y-118897505D01*
X131804196Y-118921774D01*
X131798235Y-118945572D01*
X131789970Y-118968672D01*
X131779480Y-118990850D01*
X131766867Y-119011894D01*
X131752253Y-119031599D01*
X131735777Y-119049778D01*
X131717598Y-119066254D01*
X131697893Y-119080868D01*
X131676849Y-119093481D01*
X131654671Y-119103971D01*
X131631571Y-119112236D01*
X131607773Y-119118197D01*
X131583504Y-119121797D01*
X131559000Y-119123001D01*
X131059000Y-119123001D01*
X131034496Y-119121797D01*
X131010227Y-119118197D01*
X130986429Y-119112236D01*
X130963329Y-119103971D01*
X130941151Y-119093481D01*
X130920107Y-119080868D01*
X130900402Y-119066254D01*
X130882223Y-119049778D01*
X130865747Y-119031599D01*
X130851133Y-119011894D01*
X130838520Y-118990850D01*
X130828030Y-118968672D01*
X130819765Y-118945572D01*
X130813804Y-118921774D01*
X130810204Y-118897505D01*
X130809000Y-118873001D01*
X130809000Y-117573001D01*
X130810204Y-117548497D01*
X130813804Y-117524228D01*
X130819765Y-117500430D01*
X130828030Y-117477330D01*
X130838520Y-117455152D01*
X130851133Y-117434108D01*
X130865747Y-117414403D01*
X130882223Y-117396224D01*
X130900402Y-117379748D01*
X130920107Y-117365134D01*
X130941151Y-117352521D01*
X130963329Y-117342031D01*
X130986429Y-117333766D01*
X131010227Y-117327805D01*
X131034496Y-117324205D01*
X131059000Y-117323001D01*
X131559000Y-117323001D01*
X131583504Y-117324205D01*
G37*
G36*
X130733504Y-115974205D02*
G01*
X130757773Y-115977805D01*
X130781571Y-115983766D01*
X130804671Y-115992031D01*
X130826849Y-116002521D01*
X130847893Y-116015134D01*
X130867598Y-116029748D01*
X130885777Y-116046224D01*
X130902253Y-116064403D01*
X130916867Y-116084108D01*
X130929480Y-116105152D01*
X130939970Y-116127330D01*
X130948235Y-116150430D01*
X130954196Y-116174228D01*
X130957796Y-116198497D01*
X130959000Y-116223001D01*
X130959000Y-116723001D01*
X130957796Y-116747505D01*
X130954196Y-116771774D01*
X130948235Y-116795572D01*
X130939970Y-116818672D01*
X130929480Y-116840850D01*
X130916867Y-116861894D01*
X130902253Y-116881599D01*
X130885777Y-116899778D01*
X130867598Y-116916254D01*
X130847893Y-116930868D01*
X130826849Y-116943481D01*
X130804671Y-116953971D01*
X130781571Y-116962236D01*
X130757773Y-116968197D01*
X130733504Y-116971797D01*
X130709000Y-116973001D01*
X129409000Y-116973001D01*
X129384496Y-116971797D01*
X129360227Y-116968197D01*
X129336429Y-116962236D01*
X129313329Y-116953971D01*
X129291151Y-116943481D01*
X129270107Y-116930868D01*
X129250402Y-116916254D01*
X129232223Y-116899778D01*
X129215747Y-116881599D01*
X129201133Y-116861894D01*
X129188520Y-116840850D01*
X129178030Y-116818672D01*
X129169765Y-116795572D01*
X129163804Y-116771774D01*
X129160204Y-116747505D01*
X129159000Y-116723001D01*
X129159000Y-116223001D01*
X129160204Y-116198497D01*
X129163804Y-116174228D01*
X129169765Y-116150430D01*
X129178030Y-116127330D01*
X129188520Y-116105152D01*
X129201133Y-116084108D01*
X129215747Y-116064403D01*
X129232223Y-116046224D01*
X129250402Y-116029748D01*
X129270107Y-116015134D01*
X129291151Y-116002521D01*
X129313329Y-115992031D01*
X129336429Y-115983766D01*
X129360227Y-115977805D01*
X129384496Y-115974205D01*
X129409000Y-115973001D01*
X130709000Y-115973001D01*
X130733504Y-115974205D01*
G37*
G36*
X130733504Y-114474205D02*
G01*
X130757773Y-114477805D01*
X130781571Y-114483766D01*
X130804671Y-114492031D01*
X130826849Y-114502521D01*
X130847893Y-114515134D01*
X130867598Y-114529748D01*
X130885777Y-114546224D01*
X130902253Y-114564403D01*
X130916867Y-114584108D01*
X130929480Y-114605152D01*
X130939970Y-114627330D01*
X130948235Y-114650430D01*
X130954196Y-114674228D01*
X130957796Y-114698497D01*
X130959000Y-114723001D01*
X130959000Y-115223001D01*
X130957796Y-115247505D01*
X130954196Y-115271774D01*
X130948235Y-115295572D01*
X130939970Y-115318672D01*
X130929480Y-115340850D01*
X130916867Y-115361894D01*
X130902253Y-115381599D01*
X130885777Y-115399778D01*
X130867598Y-115416254D01*
X130847893Y-115430868D01*
X130826849Y-115443481D01*
X130804671Y-115453971D01*
X130781571Y-115462236D01*
X130757773Y-115468197D01*
X130733504Y-115471797D01*
X130709000Y-115473001D01*
X129409000Y-115473001D01*
X129384496Y-115471797D01*
X129360227Y-115468197D01*
X129336429Y-115462236D01*
X129313329Y-115453971D01*
X129291151Y-115443481D01*
X129270107Y-115430868D01*
X129250402Y-115416254D01*
X129232223Y-115399778D01*
X129215747Y-115381599D01*
X129201133Y-115361894D01*
X129188520Y-115340850D01*
X129178030Y-115318672D01*
X129169765Y-115295572D01*
X129163804Y-115271774D01*
X129160204Y-115247505D01*
X129159000Y-115223001D01*
X129159000Y-114723001D01*
X129160204Y-114698497D01*
X129163804Y-114674228D01*
X129169765Y-114650430D01*
X129178030Y-114627330D01*
X129188520Y-114605152D01*
X129201133Y-114584108D01*
X129215747Y-114564403D01*
X129232223Y-114546224D01*
X129250402Y-114529748D01*
X129270107Y-114515134D01*
X129291151Y-114502521D01*
X129313329Y-114492031D01*
X129336429Y-114483766D01*
X129360227Y-114477805D01*
X129384496Y-114474205D01*
X129409000Y-114473001D01*
X130709000Y-114473001D01*
X130733504Y-114474205D01*
G37*
G36*
X130733504Y-112974205D02*
G01*
X130757773Y-112977805D01*
X130781571Y-112983766D01*
X130804671Y-112992031D01*
X130826849Y-113002521D01*
X130847893Y-113015134D01*
X130867598Y-113029748D01*
X130885777Y-113046224D01*
X130902253Y-113064403D01*
X130916867Y-113084108D01*
X130929480Y-113105152D01*
X130939970Y-113127330D01*
X130948235Y-113150430D01*
X130954196Y-113174228D01*
X130957796Y-113198497D01*
X130959000Y-113223001D01*
X130959000Y-113723001D01*
X130957796Y-113747505D01*
X130954196Y-113771774D01*
X130948235Y-113795572D01*
X130939970Y-113818672D01*
X130929480Y-113840850D01*
X130916867Y-113861894D01*
X130902253Y-113881599D01*
X130885777Y-113899778D01*
X130867598Y-113916254D01*
X130847893Y-113930868D01*
X130826849Y-113943481D01*
X130804671Y-113953971D01*
X130781571Y-113962236D01*
X130757773Y-113968197D01*
X130733504Y-113971797D01*
X130709000Y-113973001D01*
X129409000Y-113973001D01*
X129384496Y-113971797D01*
X129360227Y-113968197D01*
X129336429Y-113962236D01*
X129313329Y-113953971D01*
X129291151Y-113943481D01*
X129270107Y-113930868D01*
X129250402Y-113916254D01*
X129232223Y-113899778D01*
X129215747Y-113881599D01*
X129201133Y-113861894D01*
X129188520Y-113840850D01*
X129178030Y-113818672D01*
X129169765Y-113795572D01*
X129163804Y-113771774D01*
X129160204Y-113747505D01*
X129159000Y-113723001D01*
X129159000Y-113223001D01*
X129160204Y-113198497D01*
X129163804Y-113174228D01*
X129169765Y-113150430D01*
X129178030Y-113127330D01*
X129188520Y-113105152D01*
X129201133Y-113084108D01*
X129215747Y-113064403D01*
X129232223Y-113046224D01*
X129250402Y-113029748D01*
X129270107Y-113015134D01*
X129291151Y-113002521D01*
X129313329Y-112992031D01*
X129336429Y-112983766D01*
X129360227Y-112977805D01*
X129384496Y-112974205D01*
X129409000Y-112973001D01*
X130709000Y-112973001D01*
X130733504Y-112974205D01*
G37*
G36*
X130733504Y-111474205D02*
G01*
X130757773Y-111477805D01*
X130781571Y-111483766D01*
X130804671Y-111492031D01*
X130826849Y-111502521D01*
X130847893Y-111515134D01*
X130867598Y-111529748D01*
X130885777Y-111546224D01*
X130902253Y-111564403D01*
X130916867Y-111584108D01*
X130929480Y-111605152D01*
X130939970Y-111627330D01*
X130948235Y-111650430D01*
X130954196Y-111674228D01*
X130957796Y-111698497D01*
X130959000Y-111723001D01*
X130959000Y-112223001D01*
X130957796Y-112247505D01*
X130954196Y-112271774D01*
X130948235Y-112295572D01*
X130939970Y-112318672D01*
X130929480Y-112340850D01*
X130916867Y-112361894D01*
X130902253Y-112381599D01*
X130885777Y-112399778D01*
X130867598Y-112416254D01*
X130847893Y-112430868D01*
X130826849Y-112443481D01*
X130804671Y-112453971D01*
X130781571Y-112462236D01*
X130757773Y-112468197D01*
X130733504Y-112471797D01*
X130709000Y-112473001D01*
X129409000Y-112473001D01*
X129384496Y-112471797D01*
X129360227Y-112468197D01*
X129336429Y-112462236D01*
X129313329Y-112453971D01*
X129291151Y-112443481D01*
X129270107Y-112430868D01*
X129250402Y-112416254D01*
X129232223Y-112399778D01*
X129215747Y-112381599D01*
X129201133Y-112361894D01*
X129188520Y-112340850D01*
X129178030Y-112318672D01*
X129169765Y-112295572D01*
X129163804Y-112271774D01*
X129160204Y-112247505D01*
X129159000Y-112223001D01*
X129159000Y-111723001D01*
X129160204Y-111698497D01*
X129163804Y-111674228D01*
X129169765Y-111650430D01*
X129178030Y-111627330D01*
X129188520Y-111605152D01*
X129201133Y-111584108D01*
X129215747Y-111564403D01*
X129232223Y-111546224D01*
X129250402Y-111529748D01*
X129270107Y-111515134D01*
X129291151Y-111502521D01*
X129313329Y-111492031D01*
X129336429Y-111483766D01*
X129360227Y-111477805D01*
X129384496Y-111474205D01*
X129409000Y-111473001D01*
X130709000Y-111473001D01*
X130733504Y-111474205D01*
G37*
G36*
X130733504Y-109974205D02*
G01*
X130757773Y-109977805D01*
X130781571Y-109983766D01*
X130804671Y-109992031D01*
X130826849Y-110002521D01*
X130847893Y-110015134D01*
X130867598Y-110029748D01*
X130885777Y-110046224D01*
X130902253Y-110064403D01*
X130916867Y-110084108D01*
X130929480Y-110105152D01*
X130939970Y-110127330D01*
X130948235Y-110150430D01*
X130954196Y-110174228D01*
X130957796Y-110198497D01*
X130959000Y-110223001D01*
X130959000Y-110723001D01*
X130957796Y-110747505D01*
X130954196Y-110771774D01*
X130948235Y-110795572D01*
X130939970Y-110818672D01*
X130929480Y-110840850D01*
X130916867Y-110861894D01*
X130902253Y-110881599D01*
X130885777Y-110899778D01*
X130867598Y-110916254D01*
X130847893Y-110930868D01*
X130826849Y-110943481D01*
X130804671Y-110953971D01*
X130781571Y-110962236D01*
X130757773Y-110968197D01*
X130733504Y-110971797D01*
X130709000Y-110973001D01*
X129409000Y-110973001D01*
X129384496Y-110971797D01*
X129360227Y-110968197D01*
X129336429Y-110962236D01*
X129313329Y-110953971D01*
X129291151Y-110943481D01*
X129270107Y-110930868D01*
X129250402Y-110916254D01*
X129232223Y-110899778D01*
X129215747Y-110881599D01*
X129201133Y-110861894D01*
X129188520Y-110840850D01*
X129178030Y-110818672D01*
X129169765Y-110795572D01*
X129163804Y-110771774D01*
X129160204Y-110747505D01*
X129159000Y-110723001D01*
X129159000Y-110223001D01*
X129160204Y-110198497D01*
X129163804Y-110174228D01*
X129169765Y-110150430D01*
X129178030Y-110127330D01*
X129188520Y-110105152D01*
X129201133Y-110084108D01*
X129215747Y-110064403D01*
X129232223Y-110046224D01*
X129250402Y-110029748D01*
X129270107Y-110015134D01*
X129291151Y-110002521D01*
X129313329Y-109992031D01*
X129336429Y-109983766D01*
X129360227Y-109977805D01*
X129384496Y-109974205D01*
X129409000Y-109973001D01*
X130709000Y-109973001D01*
X130733504Y-109974205D01*
G37*
G36*
X130733504Y-108474205D02*
G01*
X130757773Y-108477805D01*
X130781571Y-108483766D01*
X130804671Y-108492031D01*
X130826849Y-108502521D01*
X130847893Y-108515134D01*
X130867598Y-108529748D01*
X130885777Y-108546224D01*
X130902253Y-108564403D01*
X130916867Y-108584108D01*
X130929480Y-108605152D01*
X130939970Y-108627330D01*
X130948235Y-108650430D01*
X130954196Y-108674228D01*
X130957796Y-108698497D01*
X130959000Y-108723001D01*
X130959000Y-109223001D01*
X130957796Y-109247505D01*
X130954196Y-109271774D01*
X130948235Y-109295572D01*
X130939970Y-109318672D01*
X130929480Y-109340850D01*
X130916867Y-109361894D01*
X130902253Y-109381599D01*
X130885777Y-109399778D01*
X130867598Y-109416254D01*
X130847893Y-109430868D01*
X130826849Y-109443481D01*
X130804671Y-109453971D01*
X130781571Y-109462236D01*
X130757773Y-109468197D01*
X130733504Y-109471797D01*
X130709000Y-109473001D01*
X129409000Y-109473001D01*
X129384496Y-109471797D01*
X129360227Y-109468197D01*
X129336429Y-109462236D01*
X129313329Y-109453971D01*
X129291151Y-109443481D01*
X129270107Y-109430868D01*
X129250402Y-109416254D01*
X129232223Y-109399778D01*
X129215747Y-109381599D01*
X129201133Y-109361894D01*
X129188520Y-109340850D01*
X129178030Y-109318672D01*
X129169765Y-109295572D01*
X129163804Y-109271774D01*
X129160204Y-109247505D01*
X129159000Y-109223001D01*
X129159000Y-108723001D01*
X129160204Y-108698497D01*
X129163804Y-108674228D01*
X129169765Y-108650430D01*
X129178030Y-108627330D01*
X129188520Y-108605152D01*
X129201133Y-108584108D01*
X129215747Y-108564403D01*
X129232223Y-108546224D01*
X129250402Y-108529748D01*
X129270107Y-108515134D01*
X129291151Y-108502521D01*
X129313329Y-108492031D01*
X129336429Y-108483766D01*
X129360227Y-108477805D01*
X129384496Y-108474205D01*
X129409000Y-108473001D01*
X130709000Y-108473001D01*
X130733504Y-108474205D01*
G37*
G36*
X130733504Y-106974205D02*
G01*
X130757773Y-106977805D01*
X130781571Y-106983766D01*
X130804671Y-106992031D01*
X130826849Y-107002521D01*
X130847893Y-107015134D01*
X130867598Y-107029748D01*
X130885777Y-107046224D01*
X130902253Y-107064403D01*
X130916867Y-107084108D01*
X130929480Y-107105152D01*
X130939970Y-107127330D01*
X130948235Y-107150430D01*
X130954196Y-107174228D01*
X130957796Y-107198497D01*
X130959000Y-107223001D01*
X130959000Y-107723001D01*
X130957796Y-107747505D01*
X130954196Y-107771774D01*
X130948235Y-107795572D01*
X130939970Y-107818672D01*
X130929480Y-107840850D01*
X130916867Y-107861894D01*
X130902253Y-107881599D01*
X130885777Y-107899778D01*
X130867598Y-107916254D01*
X130847893Y-107930868D01*
X130826849Y-107943481D01*
X130804671Y-107953971D01*
X130781571Y-107962236D01*
X130757773Y-107968197D01*
X130733504Y-107971797D01*
X130709000Y-107973001D01*
X129409000Y-107973001D01*
X129384496Y-107971797D01*
X129360227Y-107968197D01*
X129336429Y-107962236D01*
X129313329Y-107953971D01*
X129291151Y-107943481D01*
X129270107Y-107930868D01*
X129250402Y-107916254D01*
X129232223Y-107899778D01*
X129215747Y-107881599D01*
X129201133Y-107861894D01*
X129188520Y-107840850D01*
X129178030Y-107818672D01*
X129169765Y-107795572D01*
X129163804Y-107771774D01*
X129160204Y-107747505D01*
X129159000Y-107723001D01*
X129159000Y-107223001D01*
X129160204Y-107198497D01*
X129163804Y-107174228D01*
X129169765Y-107150430D01*
X129178030Y-107127330D01*
X129188520Y-107105152D01*
X129201133Y-107084108D01*
X129215747Y-107064403D01*
X129232223Y-107046224D01*
X129250402Y-107029748D01*
X129270107Y-107015134D01*
X129291151Y-107002521D01*
X129313329Y-106992031D01*
X129336429Y-106983766D01*
X129360227Y-106977805D01*
X129384496Y-106974205D01*
X129409000Y-106973001D01*
X130709000Y-106973001D01*
X130733504Y-106974205D01*
G37*
G36*
X130733504Y-105474205D02*
G01*
X130757773Y-105477805D01*
X130781571Y-105483766D01*
X130804671Y-105492031D01*
X130826849Y-105502521D01*
X130847893Y-105515134D01*
X130867598Y-105529748D01*
X130885777Y-105546224D01*
X130902253Y-105564403D01*
X130916867Y-105584108D01*
X130929480Y-105605152D01*
X130939970Y-105627330D01*
X130948235Y-105650430D01*
X130954196Y-105674228D01*
X130957796Y-105698497D01*
X130959000Y-105723001D01*
X130959000Y-106223001D01*
X130957796Y-106247505D01*
X130954196Y-106271774D01*
X130948235Y-106295572D01*
X130939970Y-106318672D01*
X130929480Y-106340850D01*
X130916867Y-106361894D01*
X130902253Y-106381599D01*
X130885777Y-106399778D01*
X130867598Y-106416254D01*
X130847893Y-106430868D01*
X130826849Y-106443481D01*
X130804671Y-106453971D01*
X130781571Y-106462236D01*
X130757773Y-106468197D01*
X130733504Y-106471797D01*
X130709000Y-106473001D01*
X129409000Y-106473001D01*
X129384496Y-106471797D01*
X129360227Y-106468197D01*
X129336429Y-106462236D01*
X129313329Y-106453971D01*
X129291151Y-106443481D01*
X129270107Y-106430868D01*
X129250402Y-106416254D01*
X129232223Y-106399778D01*
X129215747Y-106381599D01*
X129201133Y-106361894D01*
X129188520Y-106340850D01*
X129178030Y-106318672D01*
X129169765Y-106295572D01*
X129163804Y-106271774D01*
X129160204Y-106247505D01*
X129159000Y-106223001D01*
X129159000Y-105723001D01*
X129160204Y-105698497D01*
X129163804Y-105674228D01*
X129169765Y-105650430D01*
X129178030Y-105627330D01*
X129188520Y-105605152D01*
X129201133Y-105584108D01*
X129215747Y-105564403D01*
X129232223Y-105546224D01*
X129250402Y-105529748D01*
X129270107Y-105515134D01*
X129291151Y-105502521D01*
X129313329Y-105492031D01*
X129336429Y-105483766D01*
X129360227Y-105477805D01*
X129384496Y-105474205D01*
X129409000Y-105473001D01*
X130709000Y-105473001D01*
X130733504Y-105474205D01*
G37*
G36*
X130733504Y-103974205D02*
G01*
X130757773Y-103977805D01*
X130781571Y-103983766D01*
X130804671Y-103992031D01*
X130826849Y-104002521D01*
X130847893Y-104015134D01*
X130867598Y-104029748D01*
X130885777Y-104046224D01*
X130902253Y-104064403D01*
X130916867Y-104084108D01*
X130929480Y-104105152D01*
X130939970Y-104127330D01*
X130948235Y-104150430D01*
X130954196Y-104174228D01*
X130957796Y-104198497D01*
X130959000Y-104223001D01*
X130959000Y-104723001D01*
X130957796Y-104747505D01*
X130954196Y-104771774D01*
X130948235Y-104795572D01*
X130939970Y-104818672D01*
X130929480Y-104840850D01*
X130916867Y-104861894D01*
X130902253Y-104881599D01*
X130885777Y-104899778D01*
X130867598Y-104916254D01*
X130847893Y-104930868D01*
X130826849Y-104943481D01*
X130804671Y-104953971D01*
X130781571Y-104962236D01*
X130757773Y-104968197D01*
X130733504Y-104971797D01*
X130709000Y-104973001D01*
X129409000Y-104973001D01*
X129384496Y-104971797D01*
X129360227Y-104968197D01*
X129336429Y-104962236D01*
X129313329Y-104953971D01*
X129291151Y-104943481D01*
X129270107Y-104930868D01*
X129250402Y-104916254D01*
X129232223Y-104899778D01*
X129215747Y-104881599D01*
X129201133Y-104861894D01*
X129188520Y-104840850D01*
X129178030Y-104818672D01*
X129169765Y-104795572D01*
X129163804Y-104771774D01*
X129160204Y-104747505D01*
X129159000Y-104723001D01*
X129159000Y-104223001D01*
X129160204Y-104198497D01*
X129163804Y-104174228D01*
X129169765Y-104150430D01*
X129178030Y-104127330D01*
X129188520Y-104105152D01*
X129201133Y-104084108D01*
X129215747Y-104064403D01*
X129232223Y-104046224D01*
X129250402Y-104029748D01*
X129270107Y-104015134D01*
X129291151Y-104002521D01*
X129313329Y-103992031D01*
X129336429Y-103983766D01*
X129360227Y-103977805D01*
X129384496Y-103974205D01*
X129409000Y-103973001D01*
X130709000Y-103973001D01*
X130733504Y-103974205D01*
G37*
G36*
X130733504Y-102474205D02*
G01*
X130757773Y-102477805D01*
X130781571Y-102483766D01*
X130804671Y-102492031D01*
X130826849Y-102502521D01*
X130847893Y-102515134D01*
X130867598Y-102529748D01*
X130885777Y-102546224D01*
X130902253Y-102564403D01*
X130916867Y-102584108D01*
X130929480Y-102605152D01*
X130939970Y-102627330D01*
X130948235Y-102650430D01*
X130954196Y-102674228D01*
X130957796Y-102698497D01*
X130959000Y-102723001D01*
X130959000Y-103223001D01*
X130957796Y-103247505D01*
X130954196Y-103271774D01*
X130948235Y-103295572D01*
X130939970Y-103318672D01*
X130929480Y-103340850D01*
X130916867Y-103361894D01*
X130902253Y-103381599D01*
X130885777Y-103399778D01*
X130867598Y-103416254D01*
X130847893Y-103430868D01*
X130826849Y-103443481D01*
X130804671Y-103453971D01*
X130781571Y-103462236D01*
X130757773Y-103468197D01*
X130733504Y-103471797D01*
X130709000Y-103473001D01*
X129409000Y-103473001D01*
X129384496Y-103471797D01*
X129360227Y-103468197D01*
X129336429Y-103462236D01*
X129313329Y-103453971D01*
X129291151Y-103443481D01*
X129270107Y-103430868D01*
X129250402Y-103416254D01*
X129232223Y-103399778D01*
X129215747Y-103381599D01*
X129201133Y-103361894D01*
X129188520Y-103340850D01*
X129178030Y-103318672D01*
X129169765Y-103295572D01*
X129163804Y-103271774D01*
X129160204Y-103247505D01*
X129159000Y-103223001D01*
X129159000Y-102723001D01*
X129160204Y-102698497D01*
X129163804Y-102674228D01*
X129169765Y-102650430D01*
X129178030Y-102627330D01*
X129188520Y-102605152D01*
X129201133Y-102584108D01*
X129215747Y-102564403D01*
X129232223Y-102546224D01*
X129250402Y-102529748D01*
X129270107Y-102515134D01*
X129291151Y-102502521D01*
X129313329Y-102492031D01*
X129336429Y-102483766D01*
X129360227Y-102477805D01*
X129384496Y-102474205D01*
X129409000Y-102473001D01*
X130709000Y-102473001D01*
X130733504Y-102474205D01*
G37*
G36*
X130733504Y-100974205D02*
G01*
X130757773Y-100977805D01*
X130781571Y-100983766D01*
X130804671Y-100992031D01*
X130826849Y-101002521D01*
X130847893Y-101015134D01*
X130867598Y-101029748D01*
X130885777Y-101046224D01*
X130902253Y-101064403D01*
X130916867Y-101084108D01*
X130929480Y-101105152D01*
X130939970Y-101127330D01*
X130948235Y-101150430D01*
X130954196Y-101174228D01*
X130957796Y-101198497D01*
X130959000Y-101223001D01*
X130959000Y-101723001D01*
X130957796Y-101747505D01*
X130954196Y-101771774D01*
X130948235Y-101795572D01*
X130939970Y-101818672D01*
X130929480Y-101840850D01*
X130916867Y-101861894D01*
X130902253Y-101881599D01*
X130885777Y-101899778D01*
X130867598Y-101916254D01*
X130847893Y-101930868D01*
X130826849Y-101943481D01*
X130804671Y-101953971D01*
X130781571Y-101962236D01*
X130757773Y-101968197D01*
X130733504Y-101971797D01*
X130709000Y-101973001D01*
X129409000Y-101973001D01*
X129384496Y-101971797D01*
X129360227Y-101968197D01*
X129336429Y-101962236D01*
X129313329Y-101953971D01*
X129291151Y-101943481D01*
X129270107Y-101930868D01*
X129250402Y-101916254D01*
X129232223Y-101899778D01*
X129215747Y-101881599D01*
X129201133Y-101861894D01*
X129188520Y-101840850D01*
X129178030Y-101818672D01*
X129169765Y-101795572D01*
X129163804Y-101771774D01*
X129160204Y-101747505D01*
X129159000Y-101723001D01*
X129159000Y-101223001D01*
X129160204Y-101198497D01*
X129163804Y-101174228D01*
X129169765Y-101150430D01*
X129178030Y-101127330D01*
X129188520Y-101105152D01*
X129201133Y-101084108D01*
X129215747Y-101064403D01*
X129232223Y-101046224D01*
X129250402Y-101029748D01*
X129270107Y-101015134D01*
X129291151Y-101002521D01*
X129313329Y-100992031D01*
X129336429Y-100983766D01*
X129360227Y-100977805D01*
X129384496Y-100974205D01*
X129409000Y-100973001D01*
X130709000Y-100973001D01*
X130733504Y-100974205D01*
G37*
G36*
X130733504Y-99474205D02*
G01*
X130757773Y-99477805D01*
X130781571Y-99483766D01*
X130804671Y-99492031D01*
X130826849Y-99502521D01*
X130847893Y-99515134D01*
X130867598Y-99529748D01*
X130885777Y-99546224D01*
X130902253Y-99564403D01*
X130916867Y-99584108D01*
X130929480Y-99605152D01*
X130939970Y-99627330D01*
X130948235Y-99650430D01*
X130954196Y-99674228D01*
X130957796Y-99698497D01*
X130959000Y-99723001D01*
X130959000Y-100223001D01*
X130957796Y-100247505D01*
X130954196Y-100271774D01*
X130948235Y-100295572D01*
X130939970Y-100318672D01*
X130929480Y-100340850D01*
X130916867Y-100361894D01*
X130902253Y-100381599D01*
X130885777Y-100399778D01*
X130867598Y-100416254D01*
X130847893Y-100430868D01*
X130826849Y-100443481D01*
X130804671Y-100453971D01*
X130781571Y-100462236D01*
X130757773Y-100468197D01*
X130733504Y-100471797D01*
X130709000Y-100473001D01*
X129409000Y-100473001D01*
X129384496Y-100471797D01*
X129360227Y-100468197D01*
X129336429Y-100462236D01*
X129313329Y-100453971D01*
X129291151Y-100443481D01*
X129270107Y-100430868D01*
X129250402Y-100416254D01*
X129232223Y-100399778D01*
X129215747Y-100381599D01*
X129201133Y-100361894D01*
X129188520Y-100340850D01*
X129178030Y-100318672D01*
X129169765Y-100295572D01*
X129163804Y-100271774D01*
X129160204Y-100247505D01*
X129159000Y-100223001D01*
X129159000Y-99723001D01*
X129160204Y-99698497D01*
X129163804Y-99674228D01*
X129169765Y-99650430D01*
X129178030Y-99627330D01*
X129188520Y-99605152D01*
X129201133Y-99584108D01*
X129215747Y-99564403D01*
X129232223Y-99546224D01*
X129250402Y-99529748D01*
X129270107Y-99515134D01*
X129291151Y-99502521D01*
X129313329Y-99492031D01*
X129336429Y-99483766D01*
X129360227Y-99477805D01*
X129384496Y-99474205D01*
X129409000Y-99473001D01*
X130709000Y-99473001D01*
X130733504Y-99474205D01*
G37*
G36*
X130733504Y-97974205D02*
G01*
X130757773Y-97977805D01*
X130781571Y-97983766D01*
X130804671Y-97992031D01*
X130826849Y-98002521D01*
X130847893Y-98015134D01*
X130867598Y-98029748D01*
X130885777Y-98046224D01*
X130902253Y-98064403D01*
X130916867Y-98084108D01*
X130929480Y-98105152D01*
X130939970Y-98127330D01*
X130948235Y-98150430D01*
X130954196Y-98174228D01*
X130957796Y-98198497D01*
X130959000Y-98223001D01*
X130959000Y-98723001D01*
X130957796Y-98747505D01*
X130954196Y-98771774D01*
X130948235Y-98795572D01*
X130939970Y-98818672D01*
X130929480Y-98840850D01*
X130916867Y-98861894D01*
X130902253Y-98881599D01*
X130885777Y-98899778D01*
X130867598Y-98916254D01*
X130847893Y-98930868D01*
X130826849Y-98943481D01*
X130804671Y-98953971D01*
X130781571Y-98962236D01*
X130757773Y-98968197D01*
X130733504Y-98971797D01*
X130709000Y-98973001D01*
X129409000Y-98973001D01*
X129384496Y-98971797D01*
X129360227Y-98968197D01*
X129336429Y-98962236D01*
X129313329Y-98953971D01*
X129291151Y-98943481D01*
X129270107Y-98930868D01*
X129250402Y-98916254D01*
X129232223Y-98899778D01*
X129215747Y-98881599D01*
X129201133Y-98861894D01*
X129188520Y-98840850D01*
X129178030Y-98818672D01*
X129169765Y-98795572D01*
X129163804Y-98771774D01*
X129160204Y-98747505D01*
X129159000Y-98723001D01*
X129159000Y-98223001D01*
X129160204Y-98198497D01*
X129163804Y-98174228D01*
X129169765Y-98150430D01*
X129178030Y-98127330D01*
X129188520Y-98105152D01*
X129201133Y-98084108D01*
X129215747Y-98064403D01*
X129232223Y-98046224D01*
X129250402Y-98029748D01*
X129270107Y-98015134D01*
X129291151Y-98002521D01*
X129313329Y-97992031D01*
X129336429Y-97983766D01*
X129360227Y-97977805D01*
X129384496Y-97974205D01*
X129409000Y-97973001D01*
X130709000Y-97973001D01*
X130733504Y-97974205D01*
G37*
M02*
