G04 #@! TF.GenerationSoftware,KiCad,Pcbnew,(5.1.5)-3*
G04 #@! TF.CreationDate,2021-06-10T12:01:20+03:00*
G04 #@! TF.ProjectId,CNC3018Bluetooth,434e4333-3031-4384-926c-7565746f6f74,rev?*
G04 #@! TF.SameCoordinates,Original*
G04 #@! TF.FileFunction,Legend,Top*
G04 #@! TF.FilePolarity,Positive*
%FSLAX46Y46*%
G04 Gerber Fmt 4.6, Leading zero omitted, Abs format (unit mm)*
G04 Created by KiCad (PCBNEW (5.1.5)-3) date 2021-06-10 12:01:20*
%MOMM*%
%LPD*%
G04 APERTURE LIST*
%ADD10C,0.120000*%
%ADD11C,0.150000*%
G04 APERTURE END LIST*
D10*
X133869000Y-92008001D02*
X131964000Y-92008001D01*
X133869000Y-95818001D02*
X133869000Y-92008001D01*
X135774000Y-95818001D02*
X133869000Y-95818001D01*
X135774000Y-92008001D02*
X135774000Y-95818001D01*
X137679000Y-92008001D02*
X135774000Y-92008001D01*
X137679000Y-95818001D02*
X137679000Y-92008001D01*
X139584000Y-95818001D02*
X137679000Y-95818001D01*
X139584000Y-92008001D02*
X139584000Y-95818001D01*
X141489000Y-92008001D02*
X139584000Y-92008001D01*
X141489000Y-97723001D02*
X141489000Y-92008001D01*
X130059000Y-97723001D02*
X142759000Y-97723001D01*
X130059000Y-118043001D02*
X130059000Y-91373001D01*
X142759000Y-118043001D02*
X130059000Y-118043001D01*
X142759000Y-91373001D02*
X142759000Y-118043001D01*
X130059000Y-91373001D02*
X142759000Y-91373001D01*
D11*
X135647095Y-104660381D02*
X135647095Y-105469905D01*
X135694714Y-105565143D01*
X135742333Y-105612762D01*
X135837571Y-105660381D01*
X136028047Y-105660381D01*
X136123285Y-105612762D01*
X136170904Y-105565143D01*
X136218523Y-105469905D01*
X136218523Y-104660381D01*
X137218523Y-105660381D02*
X136647095Y-105660381D01*
X136932809Y-105660381D02*
X136932809Y-104660381D01*
X136837571Y-104803239D01*
X136742333Y-104898477D01*
X136647095Y-104946096D01*
M02*
